<svg xmlns="http://www.w3.org/2000/svg" width="92.6" height="100.636" viewBox="0 0 92.6 100.636">
    <defs>
        <clipPath id="clip-path">
            <path id="Rectangle_253" d="M0 0H12.477V34.159H0z" class="cls-1"/>
        </clipPath>
        <clipPath id="clip-path-2">
            <path id="Rectangle_256" d="M0 0H23.79V14.084H0z" class="cls-1"/>
        </clipPath>
        <clipPath id="clip-path-3">
            <path id="Rectangle_257" d="M0 0H5.001V5.24H0z" class="cls-1"/>
        </clipPath>
        <clipPath id="clip-path-4">
            <path id="Rectangle_258" d="M0 0H7.319V8.939H0z" class="cls-1"/>
        </clipPath>
        <clipPath id="clip-path-5">
            <path id="Rectangle_259" d="M0 0H22.305V14.799H0z" class="cls-1"/>
        </clipPath>
        <style>
            .cls-1{fill:none}.cls-3{fill:#00283b}.cls-4{fill:#fff}.cls-5{fill:#0b2739}.cls-9{fill:#ecb5a3}.cls-10{fill:#b74642}.cls-11{fill:#22445d}.cls-12{fill:#dfa393}.cls-13{mix-blend-mode:soft-light;isolation:isolate}.cls-15{fill:#f0c3b4}.cls-19{fill:#7ea2ee}
        </style>
    </defs>
    <g id="Group_987" transform="translate(-918.376 8928.175)">
        <path id="Path_1332" fill="#cbdfea" d="M1229.4-8271.831c0 2.225-16.042 4.028-35.83 4.028s-35.831-1.8-35.831-4.028 16.042-4.028 35.831-4.028 35.83 1.8 35.83 4.028" transform="translate(-218.424 -559.736)"/>
        <g id="Group_969" transform="translate(956.714 -8928.175)">
            <path id="Path_1333" d="M1226.635-8927.908H1196.5a7.975 7.975 0 0 0-8 8v79.3a7.975 7.975 0 0 0 8 8h30.134a7.976 7.976 0 0 0 8-8v-79.3a8.024 8.024 0 0 0-8-8" class="cls-3" transform="translate(-1188.503 8927.946)"/>
            <path id="Path_1334" d="M1240.026-8928.175h-30.172a7.975 7.975 0 0 0-8 8v79.3a7.975 7.975 0 0 0 8 8h30.134a7.975 7.975 0 0 0 8-8v-79.3a7.943 7.943 0 0 0-7.96-8" class="cls-3" transform="translate(-1199.962 8928.175)"/>
            <path id="Path_1335" d="M1252.743-8912.151h-3.032a.858.858 0 0 0-.872.872v1.289a1.779 1.779 0 0 1-1.782 1.781h-18.5a1.779 1.779 0 0 1-1.781-1.781v-1.289a.858.858 0 0 0-.872-.872h-3.032a6.083 6.083 0 0 0-6.065 6.064v78.576a6.082 6.082 0 0 0 6.065 6.064h29.906a6.082 6.082 0 0 0 6.065-6.064v-78.576a6.14 6.14 0 0 0-6.1-6.064" class="cls-4" transform="translate(-1212.793 8914.426)"/>
            <path id="Path_1336" d="M1327.095-8290.254h-14.062a.34.34 0 0 1-.341-.342.339.339 0 0 1 .341-.341h14.063a.34.34 0 0 1 .341.341.34.34 0 0 1-.341.342" class="cls-5" transform="translate(-1295.066 8381.376)"/>
            <path id="Path_1337" fill="none" stroke="#86888c" stroke-linecap="round" stroke-linejoin="round" d="M1346.677-8900.4h5.231m2.137 0h.644" transform="translate(-1325.086 8904.342)"/>
        </g>
        <g id="Group_986" transform="translate(918.376 -8872.302)">
            <g id="Group_973" opacity="0.1" transform="translate(40.881 2.686)">
                <g id="Group_972">
                    <g id="Group_971" clip-path="url(#clip-path)">
                        <path id="Path_1341" d="M1218.8-8501.806a1.223 1.223 0 0 1-.021-.278.106.106 0 0 0-.021-.064c0-.043-.021-.064-.021-.107l-.064-.192a3.355 3.355 0 0 0-.492-1.241.3.3 0 0 0-.064-.086 3.7 3.7 0 0 0-.471-.663c-.128-.129-.278-.257-.428-.386-.6-.321-1.2-.557-1.777-.813-.021 0-.021-.021-.021-.043a5.883 5.883 0 0 1-1.156-2.033 7.213 7.213 0 0 0 1.413-3.832 5.793 5.793 0 0 0-2.183-3.639 6.187 6.187 0 0 0-2.569-.364 1.831 1.831 0 0 0-.471.043 2.649 2.649 0 0 0-.578.064 2.327 2.327 0 0 1-2.119.835 5.2 5.2 0 0 1-1.327-.214 5.527 5.527 0 0 0 1.263 3.425c.021 0 .043.021.064 0a.813.813 0 0 0 .321.021 11.074 11.074 0 0 0 2.29 4.666 8.83 8.83 0 0 0-1.841.171l-.021.021v-.021s-.3.193-.749.472v19.115a5.549 5.549 0 0 0 5.566 5.544h1.2c.214-.514.471-1.134.771-1.819a36.353 36.353 0 0 0 1.948-6.957 43.316 43.316 0 0 0 .535-5.223l.021.021a14.591 14.591 0 0 0 1.006-3.96 7.312 7.312 0 0 0 0-2.462" transform="translate(-1206.426 8515.565)"/>
                    </g>
                </g>
            </g>
            <path id="Path_1342" d="M989.151-8276.992l-.3.931s.005.025-.036.089l-.01.016a4.571 4.571 0 0 1-.7 1.255.906.906 0 0 1-.282.22c-.543.272 3.148 1.933 3.148 1.933a2.3 2.3 0 0 1-.017-.621 10.534 10.534 0 0 1 .817-2.08z" class="cls-9" transform="translate(-977.919 8313.538)"/>
            <path id="Path_1343" d="M949.56-8260.466l7.844 2.77a2.361 2.361 0 0 0 .907-2.57 7.442 7.442 0 0 1-3.354-1.786 14.6 14.6 0 0 1-5.039.569c-.645.036-.668.432-.359 1.018" class="cls-10" transform="translate(-944.969 8300.719)"/>
            <path id="Rectangle_254" d="M0 0H0.357V8.332H0z" class="cls-10" transform="translate(4.473 40.589) rotate(-70.552)"/>
            <path id="Path_1344" d="M949.067-8261.94l-.883.271s-.017.019-.089.02h-.018a4.3 4.3 0 0 1-1.35.14.823.823 0 0 1-.323-.1c-.505-.271.211 3.484.211 3.484a2.195 2.195 0 0 1 .472-.35 9.925 9.925 0 0 1 2.053-.5z" class="cls-9" transform="translate(-942.272 8300.622)"/>
            <path id="Path_1345" d="M920.664-8287.273l2.111 7.572a2.23 2.23 0 0 0 2.481-.691 7.037 7.037 0 0 1-.437-3.564 13.779 13.779 0 0 1-3.174-3.59c-.378-.479-.7-.283-.982.273" class="cls-10" transform="translate(-920.339 8322.827)"/>
            <path id="Rectangle_255" d="M0 0H0.337V7.874H0z" class="cls-10" transform="translate(0 35.645) rotate(-15.58)"/>
            <path id="Path_1346" d="M990.927-8380.3l.277.1 2.821 1.047h.01l.287.112c2.472-5.364 5.939-9.938 6.339-12.144 1.364 1.866 6.812 6.2 8.022 7.041l9.8-1.021 2.431.011c-1-.718-2.011-1.467-3.026-2.226l-3.026-2.288a116.485 116.485 0 0 0-11.191-7.929c-.267-.164-.533-.308-.79-.441h-.01a13.657 13.657 0 0 0-1.3-.626 4.627 4.627 0 0 0-3.057-.5 1.1 1.1 0 0 0-.349.174 4.3 4.3 0 0 0-1.231 1.467 18.572 18.572 0 0 0-1.087 2.247c-.062.133-.123.276-.174.41-1.631 4.031-3.252 10.063-4.739 14.565" class="cls-5" transform="translate(-980.63 8418.46)"/>
            <path id="Path_1347" d="M959.248-8305.672l-.683-3.194s14.975-4.571 17.788-4.875c2.522-.536 11.664-3.836 21.321-2.777.829 3.042-.109 6.665-2.822 7.95-4.045 1.55-10.273.736-16.332.173z" class="cls-11" transform="translate(-952.861 8347.633)"/>
            <path id="Path_1348" d="M1160.591-8452.311a5.133 5.133 0 0 0 1.066 1.562 17.173 17.173 0 0 0 2.54 2.229 15.23 15.23 0 0 0 6.95 3.082 1.436 1.436 0 0 0 .2.02c.659-2.229 3.723-6.96 3.849-16.363v-.01c.01-.2.01-.416.01-.63a52.9 52.9 0 0 0-.611-7.842v-.029a18.385 18.385 0 0 0-2.521-1.134 12.551 12.551 0 0 0-3.4-.747 10.2 10.2 0 0 0-2.772.175 26.077 26.077 0 0 0-2.908 6.262c-.029.088-.048.155-.068.233v.009a18.769 18.769 0 0 0-.611 2.986c-.106.766-.174 1.5-.223 2.229-.019.281-.039.572-.048.853-.039.407-.068.814-.1 1.231a18.739 18.739 0 0 1-1.173 5.419c-.058.155-.116.311-.184.465" class="cls-4" transform="translate(-1126.215 8481.041)"/>
            <path id="Path_1349" d="M1054.119-8470.713l-2.9 6.256a15.25 15.25 0 0 1-1.356 1.184l-.009.009c-.425.326-.877.66-1.41 1-.5.307-1.04.633-1.645.949-.316.162-.642.334-.994.5-.3.145-.615.289-.931.425-.009 0-.009.009-.018.009-1.085.47-3.9.7-7.177.977h-.009c-1.374.126-2.82.253-4.266.425a9.28 9.28 0 0 0-2.052 1.916 2.112 2.112 0 0 0-.316.271.867.867 0 0 1-.588.172 1.96 1.96 0 0 1-.081-1.121v-.009a3.235 3.235 0 0 1 .389-1.365 2.694 2.694 0 0 1 2.441-1.419l9.256-2.351h.009l.669-.172.144-.036h.018l.208-.045h.009l.551-.154c.172-.135.335-.271.506-.406a3.479 3.479 0 0 1 .289-.217.2.2 0 0 1 .091-.082l.009-.009a.452.452 0 0 0 .1-.09c1.04-.823 2.052-1.618 3.019-2.369.09-.071.172-.135.262-.208 1.455-1.111 2.848-2.133 4.221-3.055a.25.25 0 0 1 .054-.027c.136-.081.28-.181.416-.271.289-.181.542-.334.723-.451a1.706 1.706 0 0 1 .235-.146c.072-.045.117-.072.135-.081" class="cls-12" transform="translate(-1014.44 8479.765)"/>
            <g id="Group_976" class="cls-13" transform="translate(15.889 9.052)">
                <g id="Group_975">
                    <g id="Group_974" clip-path="url(#clip-path-2)">
                        <path id="Path_1350" d="M1054.119-8470.713l-2.9 6.256a15.25 15.25 0 0 1-1.356 1.184l-.009.009c-.425.326-.877.66-1.41 1-.5.307-1.04.633-1.645.949-.316.162-.642.334-.994.5-.3.145-.615.289-.931.425-.009 0-.009.009-.018.009-1.085.47-3.9.7-7.177.977h-.009c-1.374.126-2.82.253-4.266.425a9.28 9.28 0 0 0-2.052 1.916 2.112 2.112 0 0 0-.316.271.867.867 0 0 1-.588.172 1.96 1.96 0 0 1-.081-1.121v-.009a3.235 3.235 0 0 1 .389-1.365 2.694 2.694 0 0 1 2.441-1.419l9.256-2.351h.009l.669-.172.144-.036h.018l.208-.045h.009l.551-.154c.172-.135.335-.271.506-.406a3.479 3.479 0 0 1 .289-.217.2.2 0 0 1 .091-.082l.009-.009a.452.452 0 0 0 .1-.09c1.04-.823 2.052-1.618 3.019-2.369.09-.071.172-.135.262-.208 1.455-1.111 2.848-2.133 4.221-3.055a.25.25 0 0 1 .054-.027c.136-.081.28-.181.416-.271.289-.181.542-.334.723-.451a1.706 1.706 0 0 1 .235-.146c.072-.045.117-.072.135-.081" class="cls-15" transform="translate(-1030.329 8470.713)"/>
                    </g>
                </g>
            </g>
            <path id="Path_1351" d="M1217.164-8486.836c1.256 2.2-6.939 2.132-4.366-.278.26-.814.226-.906-.238-1.547l3.216-1.821a5.144 5.144 0 0 0 1.389 3.646" class="cls-12" transform="translate(-1170.58 8496.729)"/>
            <g id="Group_979" class="cls-13" transform="translate(41.714 6.246)">
                <g id="Group_978">
                    <g id="Group_977" clip-path="url(#clip-path-3)">
                        <path id="Path_1352" fill="#d6ada2" d="M1217.164-8486.836c1.256 2.2-6.939 2.132-4.366-.278.26-.814.226-.906-.238-1.547l3.216-1.821a5.144 5.144 0 0 0 1.389 3.646" transform="translate(-1212.294 8490.482)"/>
                    </g>
                </g>
            </g>
            <path id="Path_1353" d="M1199.115-8527.379c-1.112 1.221-2.39 2.532-3.337 2.652-1.085.15-3.345-4.992-3.05-7.384a8.266 8.266 0 0 1 4.339-1.552l2.954 3.049z" class="cls-9" transform="translate(-1153.768 8533.78)"/>
            <g id="Group_982" class="cls-13" transform="translate(38.934 0.118)">
                <g id="Group_981">
                    <g id="Group_980" clip-path="url(#clip-path-4)">
                        <path id="Path_1354" d="M1199.115-8527.379c-1.112 1.221-2.39 2.532-3.337 2.652-1.085.15-3.345-4.992-3.05-7.384a8.266 8.266 0 0 1 4.339-1.552l2.954 3.049z" class="cls-15" transform="translate(-1192.702 8533.662)"/>
                    </g>
                </g>
            </g>
            <path id="Path_1355" d="M1134.11-8411.515l.293-.2-.413-.291z" class="cls-19" transform="translate(-1103.389 8429.386)"/>
            <path id="Path_1356" d="M1107.522-8458.675v.009c-.009-.009-.018 0-.018.01z" class="cls-19" transform="translate(-1080.662 8469.436)"/>
            <path id="Path_1357" d="M1109.934-8451.817l-1.645-.858a1.231 1.231 0 0 1-.416-.561l-1.926-5.026-.353-.262.271-.181c0-.01.009-.019.018-.01.027-.026.054-.018.1 0l1.636.868a1.18 1.18 0 0 1 .416.561l1.979 5.171c.091.244.054.37-.081.3" class="cls-5" transform="translate(-1079.024 8469.483)"/>
            <path id="Path_1358" d="M1109.393-8450.422l-1.641-.861a1.208 1.208 0 0 1-.414-.562l-1.98-5.176c-.091-.237-.053-.372.084-.3l1.641.861a1.209 1.209 0 0 1 .414.562l1.98 5.176c.091.237.053.372-.084.3" class="cls-11" transform="translate(-1078.779 8468.29)"/>
            <path id="Path_1359" fill="#e5e8f7" d="M1113.142-8450.88l-.514-.271a.554.554 0 0 1-.191-.258c-.042-.11-.025-.172.039-.139l.515.271a.547.547 0 0 1 .191.259c.042.109.025.171-.039.138" transform="translate(-1084.875 8463.326)"/>
            <path id="Path_1360" d="M1188.222-8531.825c-1.343.983-2.656 1.849-3.666 1.513a5.554 5.554 0 0 1-1.268-3.419c1.411.39 2.649.387 3.44-.618a6.817 6.817 0 0 1 3.62.239 5.759 5.759 0 0 1 2.18 3.643 7.251 7.251 0 0 1-1.421 3.867c-.628-.1-1.133-.3-1.286-.771a3.258 3.258 0 0 0 .467-2.114 1.267 1.267 0 0 0-.651-.844 1.694 1.694 0 0 0-.527 1.074 3.765 3.765 0 0 1-.887-2.57" class="cls-10" transform="translate(-1145.69 8534.492)"/>
            <path id="Path_1361" d="M1135.915-8453.2c-.081.172-.136.344-.208.516-.271.643-.895 2.9-1.085 3.363a12.256 12.256 0 0 1-4.113 5.378c-4.095.859-14.3-7.2-14.861-7.512l-1.374-.353a5.648 5.648 0 0 1-.606-2.685c.425-.344.832-.533 1.211-.308l.859.688a1.233 1.233 0 0 1-.018-.787.42.42 0 0 1 .524-.062 8.73 8.73 0 0 0 .407 1.383l3.3 1.636 2.1 1.04 6.933 3.443c.018-.018.66-1.374 1.5-3.146 1.392-2.9 3.3-6.924 3.751-7.864l.046-.082.054-.107v-.01l.009-.009a3.312 3.312 0 0 1 .416.38 3.784 3.784 0 0 1 1.13 2.287.106.106 0 0 1 .009.072 14.284 14.284 0 0 1 .018 2.738" class="cls-9" transform="translate(-1085.949 8469.436)"/>
            <g id="Group_985" class="cls-13" transform="translate(27.716 10.76)">
                <g id="Group_984">
                    <g id="Group_983" clip-path="url(#clip-path-5)">
                        <path id="Path_1362" d="M1135.915-8453.2c-.081.172-.136.344-.208.516-.271.643-.895 2.9-1.085 3.363a12.256 12.256 0 0 1-4.113 5.378c-4.095.859-14.3-7.2-14.861-7.512l-1.374-.353a5.648 5.648 0 0 1-.606-2.685c.425-.344.832-.533 1.211-.308l.859.688a1.233 1.233 0 0 1-.018-.787.42.42 0 0 1 .524-.062 8.73 8.73 0 0 0 .407 1.383l3.3 1.636 2.1 1.04 6.933 3.443c.018-.018.66-1.374 1.5-3.146 1.392-2.9 3.3-6.924 3.751-7.864l.046-.082.054-.107v-.01l.009-.009a3.312 3.312 0 0 1 .416.38 3.784 3.784 0 0 1 1.13 2.287.106.106 0 0 1 .009.072 14.284 14.284 0 0 1 .018 2.738" class="cls-15" transform="translate(-1113.666 8458.675)"/>
                    </g>
                </g>
            </g>
            <path id="Path_1363" d="M1157.11-8463.241s-2.141-2.957-1.817-3.48 6.032-4.053 6.032-4.053l-2.69 6.233a14.9 14.9 0 0 1-1.525 1.3" class="cls-4" transform="translate(-1121.641 8479.817)"/>
            <path id="Path_1364" d="M1230.368-8450.755c.08.048.159.1.255.144a25.6 25.6 0 0 0 4.428 1.345 14.876 14.876 0 0 0 1.006-3.942c.35-1.889-.016-4.271-1.578-5.482l-.064.128z" class="cls-4" transform="translate(-1186.089 8469.449)"/>
        </g>
        <path id="Informacion_2Regular" fill="#e63780" fill-rule="evenodd" d="M13.268 23.653c3.123-.029 10.385-1.156 10.385-11 0-9.861-7.33-11.031-10.486-11.074h-1.1c-3.155.057-10.489 1.246-10.489 11s7.377 10.985 10.55 11.06c.28.007.6.011.915.011h.226zM13.192 0c2.534.036 12.036.955 12.036 12.654s-9.415 12.553-11.946 12.575h-.241c-.323 0-.661 0-.951-.014C9.617 25.157 0 24.18 0 12.578 0 .955 9.628.05 12.036.007 12.42 0 12.808 0 13.192 0zm-.571 9.477a.79.79 0 0 1 .79.79v8.2a.79.79 0 0 1-1.579 0v-8.2a.792.792 0 0 1 .789-.79zm.007-2.721a.84.84 0 1 1 .057 1.68h-.061a.84.84 0 0 1 0-1.68z" transform="translate(969.337 -8905.738)"/>
    </g>
</svg>
