<svg xmlns="http://www.w3.org/2000/svg" width="385.948" height="63.352" viewBox="0 0 385.948 63.352">
    <path data-name="Path 2624" d="M-168.47 7.547a3.127 3.127 0 0 0 2.2-.68c.352-.281.539-.539.539-.773a.761.761 0 0 0-.3-.562c-.891-1.008-1.383-2.742-1.383-5.109a57.285 57.285 0 0 1 2.25-13.57c1.5-5.484 3.609-11.953 6.3-19.453a3.983 3.983 0 0 0 .234-1.2 2.274 2.274 0 0 0-1.406-2.062 1.654 1.654 0 0 0-.656-.141q-2.812 0-8.25 9.609c-1.687 3.023-3.328 6-4.852 8.977-3.023 5.836-4.8 8.766-5.391 8.766-.234 0-.328-.328-.328-.961l.234-15.023c0-2.93-.469-4.734-1.43-5.414a5.112 5.112 0 0 0-2.977-1.008c-1.5 0-2.789 1.688-3.891 4.992a144.772 144.772 0 0 0-4.9 20.438c-.633 3.7-.961 5.766-.961 6.258a2.909 2.909 0 0 0 .914 2.344 2.917 2.917 0 0 0 1.922.82c1.055 0 1.641-.586 1.688-1.781a88.1 88.1 0 0 1 2.063-11.625c1.8-8.391 2.93-12.609 3.3-12.609v1.43c-.141 2.367-.234 4.8-.234 7.359 0 1.969.047 4.078.094 6.281a13.417 13.417 0 0 0 1.57 6.141c.445.633.867.961 1.406.961a2.292 2.292 0 0 0 1.523-.727c2.063-1.711 4.57-5.812 7.594-12.187 1.2-2.6 2.25-4.852 3.117-6.82 1.008-2.3 1.547-3.445 1.688-3.445a40.189 40.189 0 0 1-1.266 4.641 46.456 46.456 0 0 0-2.016 8.016 67.813 67.813 0 0 0-1.57 12.047 32.131 32.131 0 0 0 .281 3.75q.222 2.32 2.894 2.32zM-146.1.234c.82 0 1.2-.234 1.2-.656a1.268 1.268 0 0 0-.187-.633 9.7 9.7 0 0 1-.82-3.8 26.734 26.734 0 0 1 .867-6.141 8.09 8.09 0 0 0 .234-1.781 2.81 2.81 0 0 0-1.336-2.742 2.124 2.124 0 0 0-.633-.094 2.776 2.776 0 0 0-.891.164c-.633.188-2.414 2.109-5.3 5.7-2.25 2.836-3.633 4.289-4.125 4.289-.094 0-.141-.117-.141-.258a3.494 3.494 0 0 1 .281-1.008 36.593 36.593 0 0 1 4.125-8.344c.352-.445.586-.68.773-.68a2.106 2.106 0 0 1 .68.3 2.13 2.13 0 0 0 1.055.234c.422 0 .82-.352 1.148-1.008a1.766 1.766 0 0 0 .188-.914c0-.4-.328-.867-1.008-1.406a3.567 3.567 0 0 0-2.25-.75c-1.336 0-2.648.82-3.891 2.438a30.04 30.04 0 0 0-5.766 12 5.689 5.689 0 0 0-.141 1.2 3.667 3.667 0 0 0 1.969 3.375 4.039 4.039 0 0 0 1.875.516 3.358 3.358 0 0 0 2.438-1.383 61.74 61.74 0 0 0 2.508-3.023c1.523-1.969 2.3-2.93 2.344-2.93.258 0 .352.516.352 1.57 0 2.977 1.242 4.852 3.773 5.672a3.17 3.17 0 0 0 .679.093zm-9.234-19.312a1.952 1.952 0 0 0 1.383-.68c3.938-4.125 5.953-6.328 6.094-6.609a1.437 1.437 0 0 0 .211-.68 1.993 1.993 0 0 0-.258-.773 1.757 1.757 0 0 0-1.57-.8c-1.687 0-3.516 1.43-5.578 4.313-1.289 1.875-1.922 3.164-1.922 3.984a1.058 1.058 0 0 0 .539.867 1.892 1.892 0 0 0 1.1.378zm17.588 20.414a9.375 9.375 0 0 0 5.039-3.023q2.32-2.355 2.32-3.586v-1.36c-.047-1.477-1.594-2.391-4.617-2.719-1.594-.211-2.391-.82-2.437-1.922a14.44 14.44 0 0 1 3.586-9.117 2.813 2.813 0 0 0 .727-1.641c0-.539-.68-1.008-1.969-1.43a2.276 2.276 0 0 0-.867-.164c-1.969 0-3.609 2.109-4.9 6.4a20.1 20.1 0 0 0-1.148 5.461c0 2.508 1.289 3.938 3.844 4.336 1.523.234 2.391.563 2.531.891a2.376 2.376 0 0 1 .258.773c0 .82-.82 2.016-2.414 3.563-1.2 1.148-1.781 1.922-1.781 2.344-.001.819.632 1.194 1.828 1.194zm27.606 18.094c2.742 0 4.945-1.523 6.586-4.547q5.027-9.6 5.039-23.719a16.793 16.793 0 0 0-.539-5.273 2.744 2.744 0 0 0-2.812-1.922 1.27 1.27 0 0 0-1.266.727 21.709 21.709 0 0 1-2.531 3.938 64.458 64.458 0 0 1-4.172 4.992 24.385 24.385 0 0 1-3.465 3.21 20.875 20.875 0 0 1 3.328-7.734 53.457 53.457 0 0 1 5.086-7.008c.375-.422.7-.68.961-.68.234 0 .469.211.75.539a1.241 1.241 0 0 0 .914.586 1.64 1.64 0 0 0 .914-.4.977.977 0 0 0 .492-.867 2 2 0 0 0-.445-1.055c-.82-1.289-1.57-1.969-2.25-2.016-.727-.047-1.1-.094-1.242-.094a4.4 4.4 0 0 0-3.234 1.641 45.267 45.267 0 0 0-9.633 15.633 5.72 5.72 0 0 0-.445 2.016A3.74 3.74 0 0 0-116.093.68a5.205 5.205 0 0 0 2.555.8 4.582 4.582 0 0 0 3.4-1.8c3.984-4.57 6.047-6.914 6.3-7.055a1.845 1.845 0 0 1 .469-.164c.234 0 .4.211.4.539a61.743 61.743 0 0 1-1.219 11.367 34.232 34.232 0 0 1-3.445 9.8 8.953 8.953 0 0 1-1.2 1.875 2.094 2.094 0 0 1-1.734.773 3.889 3.889 0 0 1-3.937-3.164 1.152 1.152 0 0 0-1.1-.961c-.914 0-1.383.516-1.383 1.57a3.365 3.365 0 0 0 1.008 2.367 8.327 8.327 0 0 0 5.839 2.803zm18.526-36.047a1.425 1.425 0 0 0 1.313-.961c1.617-4.031 2.438-6.375 2.438-7.1-.047-.656-.562-1.242-1.687-1.711a1.952 1.952 0 0 0-.937-.211 1.5 1.5 0 0 0-1.453.961l-.234.68a17.888 17.888 0 0 0-1.547 5.578v.961a1.678 1.678 0 0 0 1.453 1.758zm-1.523 19.359c.82-.047 1.242-.258 1.289-.492a4.159 4.159 0 0 0 .047-.773A5.192 5.192 0 0 0-91.9.586a3.287 3.287 0 0 1-.141-.961 84.075 84.075 0 0 1 1.477-12.4 4.84 4.84 0 0 0 .117-1.055c0-1.383-.867-2.062-2.6-2.062a1.706 1.706 0 0 0-1.828 1.406A46.828 46.828 0 0 0-96.02-3.75c0 1.008.047 2.063.094 3.164.141 2.227 1.008 3.328 2.648 3.328zm11.752 16.688c2.742 0 4.945-1.523 6.586-4.547q5.027-9.6 5.039-23.719a16.793 16.793 0 0 0-.539-5.273 2.744 2.744 0 0 0-2.812-1.922 1.27 1.27 0 0 0-1.266.727 21.709 21.709 0 0 1-2.531 3.938 64.458 64.458 0 0 1-4.172 4.991 24.385 24.385 0 0 1-3.469 3.211 20.875 20.875 0 0 1 3.328-7.736 53.457 53.457 0 0 1 5.086-7.008c.375-.422.7-.68.961-.68.234 0 .469.211.75.539a1.241 1.241 0 0 0 .914.586 1.64 1.64 0 0 0 .914-.4.977.977 0 0 0 .492-.867 2 2 0 0 0-.445-1.055c-.82-1.289-1.57-1.969-2.25-2.016-.727-.047-1.1-.094-1.242-.094a4.4 4.4 0 0 0-3.234 1.641 45.267 45.267 0 0 0-9.633 15.637 5.72 5.72 0 0 0-.446 2.017A3.74 3.74 0 0 0-87.338.68a5.205 5.205 0 0 0 2.555.8 4.582 4.582 0 0 0 3.4-1.8c3.984-4.57 6.047-6.914 6.3-7.055a1.845 1.845 0 0 1 .469-.164c.234 0 .4.211.4.539a61.743 61.743 0 0 1-1.218 11.359 34.232 34.232 0 0 1-3.445 9.8 8.953 8.953 0 0 1-1.2 1.875 2.094 2.094 0 0 1-1.734.773 3.889 3.889 0 0 1-3.937-3.164 1.152 1.152 0 0 0-1.1-.961c-.914 0-1.383.516-1.383 1.57a3.365 3.365 0 0 0 1.008 2.367 8.327 8.327 0 0 0 5.838 2.811zM-53.156.234c.82 0 1.2-.234 1.2-.656a1.268 1.268 0 0 0-.187-.633 9.7 9.7 0 0 1-.82-3.8 26.734 26.734 0 0 1 .867-6.141 8.09 8.09 0 0 0 .234-1.781 2.81 2.81 0 0 0-1.338-2.739 2.124 2.124 0 0 0-.633-.094 2.776 2.776 0 0 0-.891.164c-.633.188-2.414 2.109-5.3 5.7-2.25 2.836-3.633 4.289-4.125 4.289-.094 0-.141-.117-.141-.258a3.494 3.494 0 0 1 .281-1.008 36.593 36.593 0 0 1 4.125-8.344c.352-.445.586-.68.773-.68a2.106 2.106 0 0 1 .68.3 2.13 2.13 0 0 0 1.055.234c.422 0 .82-.352 1.148-1.008a1.766 1.766 0 0 0 .188-.914c0-.4-.328-.867-1.008-1.406a3.567 3.567 0 0 0-2.25-.75c-1.336 0-2.648.82-3.891 2.438a30.04 30.04 0 0 0-5.766 12 5.689 5.689 0 0 0-.141 1.2 3.667 3.667 0 0 0 1.971 3.372 4.039 4.039 0 0 0 1.875.515 3.358 3.358 0 0 0 2.438-1.383 61.74 61.74 0 0 0 2.508-3.023c1.523-1.969 2.3-2.93 2.344-2.93.258 0 .352.516.352 1.57 0 2.977 1.242 4.852 3.773 5.672a3.17 3.17 0 0 0 .679.094zm8.354 1.1a9.375 9.375 0 0 0 5.039-3.023q2.32-2.355 2.32-3.586v-1.358c-.047-1.477-1.594-2.391-4.617-2.719-1.594-.211-2.391-.82-2.437-1.922a14.44 14.44 0 0 1 3.586-9.117 2.813 2.813 0 0 0 .727-1.641c0-.539-.68-1.008-1.969-1.43a2.276 2.276 0 0 0-.867-.164c-1.969 0-3.609 2.109-4.9 6.4a20.1 20.1 0 0 0-1.148 5.461c0 2.508 1.289 3.938 3.844 4.336 1.523.234 2.391.563 2.531.891a2.376 2.376 0 0 1 .258.773c0 .82-.82 2.016-2.414 3.563C-46.044-1.055-46.63-.281-46.63.141c0 .82.63 1.195 1.83 1.195zM-15.7-3.937c-.539-.047-.773-.141-.773-.281a1.3 1.3 0 0 1-.047-.4A19.36 19.36 0 0 1-14.781-8.3c2.016-3.8 3.445-5.719 4.266-5.719.328 0 .492.281.492.82a9.1 9.1 0 0 1-1.359 3.75c-1.734 3.211-3.07 5.039-4.078 5.367a1.025 1.025 0 0 0-.24.145zm-6.44 18.421c.914 0 1.453-.187 1.547-.609a5.77 5.77 0 0 0 .141-1.242l-.047-1.687a25.844 25.844 0 0 1 .82-5.812c1.2-4.758 1.922-7.2 2.25-7.242l.492-.047a1.607 1.607 0 0 1 .75.188 5.115 5.115 0 0 0 1.828.328 4.648 4.648 0 0 0 3.469-1.57 17.158 17.158 0 0 0 4.64-9.518 8.772 8.772 0 0 0 .141-1.523 3.036 3.036 0 0 0-1.758-2.836 5.094 5.094 0 0 0-2.227-.586c-1.383.047-2.625.914-3.82 2.648q-2.391 3.3-2.883 3.3c-.141 0-.187-.141-.187-.375a9.753 9.753 0 0 1 .516-3.023 8.091 8.091 0 0 0 .492-2.2 1.84 1.84 0 0 0-1.547-1.828 2.353 2.353 0 0 0-.773-.141c-.867 0-1.43.516-1.711 1.617a175.414 175.414 0 0 0-4.945 28.945l-.047.492c.046 1.831 1.007 2.721 2.859 2.721zM10.893.234c.82 0 1.2-.234 1.2-.656a1.268 1.268 0 0 0-.187-.633 9.7 9.7 0 0 1-.82-3.8 26.734 26.734 0 0 1 .867-6.141 8.09 8.09 0 0 0 .234-1.781 2.81 2.81 0 0 0-1.336-2.742 2.124 2.124 0 0 0-.633-.094 2.776 2.776 0 0 0-.891.164c-.633.188-2.414 2.109-5.3 5.7C1.776-6.914.393-5.461-.1-5.461c-.094 0-.141-.117-.141-.258a3.494 3.494 0 0 1 .283-1.008 36.593 36.593 0 0 1 4.125-8.343c.352-.445.586-.68.773-.68a2.106 2.106 0 0 1 .68.3 2.13 2.13 0 0 0 1.055.234c.422 0 .82-.352 1.148-1.008a1.766 1.766 0 0 0 .188-.914c0-.4-.328-.867-1.008-1.406a3.567 3.567 0 0 0-2.25-.75c-1.336 0-2.648.82-3.891 2.438a30.04 30.04 0 0 0-5.766 12 5.689 5.689 0 0 0-.141 1.2 3.667 3.667 0 0 0 1.97 3.375A4.039 4.039 0 0 0-1.2.234a3.358 3.358 0 0 0 2.437-1.382 61.74 61.74 0 0 0 2.508-3.023C5.268-6.141 6.042-7.1 6.089-7.1c.258 0 .352.516.352 1.57C6.44-2.555 7.682-.68 10.214.141a3.17 3.17 0 0 0 .679.093zm7.018 1.2c.914 0 1.523-.75 1.875-2.25a20.706 20.706 0 0 1 7.477-12.469c.141-.094.3-.187.492-.3.7-.328 1.1-.7 1.1-1.1a1.36 1.36 0 0 0-.281-.75 1.562 1.562 0 0 0-1.359-.867 4.411 4.411 0 0 0-1.828.422 7.241 7.241 0 0 0-3.937 3.563c-.141.234-.234.375-.328.375-.141 0-.187-.234-.187-.727a6.8 6.8 0 0 1 .281-1.8 5.56 5.56 0 0 0 .234-1.331c0-1.781-.937-2.625-2.906-2.625a1.357 1.357 0 0 0-1.453 1.336q-1.02 6.4-2.109 16.172a1.945 1.945 0 0 0 .539 1.456 3.406 3.406 0 0 0 2.39.891zm24.62-1.2c.82 0 1.2-.234 1.2-.656a1.268 1.268 0 0 0-.187-.633 9.7 9.7 0 0 1-.82-3.8 26.734 26.734 0 0 1 .867-6.141 8.09 8.09 0 0 0 .234-1.781 2.81 2.81 0 0 0-1.336-2.742 2.124 2.124 0 0 0-.633-.094 2.776 2.776 0 0 0-.891.164c-.633.188-2.414 2.109-5.3 5.7-2.25 2.836-3.633 4.289-4.125 4.289-.094 0-.141-.117-.141-.258a3.494 3.494 0 0 1 .281-1.008 36.593 36.593 0 0 1 4.12-8.344c.352-.445.586-.68.773-.68a2.106 2.106 0 0 1 .68.3 2.13 2.13 0 0 0 1.055.234c.422 0 .82-.352 1.148-1.008a1.766 1.766 0 0 0 .188-.914c0-.4-.328-.867-1.008-1.406a3.567 3.567 0 0 0-2.25-.75c-1.336 0-2.648.82-3.891 2.438a30.04 30.04 0 0 0-5.766 12 5.689 5.689 0 0 0-.141 1.2 3.667 3.667 0 0 0 1.974 3.375 4.039 4.039 0 0 0 1.875.516 3.358 3.358 0 0 0 2.438-1.383 61.74 61.74 0 0 0 2.508-3.023c1.523-1.969 2.3-2.93 2.344-2.93.258 0 .352.516.352 1.57 0 2.977 1.242 4.852 3.773 5.672a3.17 3.17 0 0 0 .679.093zm23.107 7.407a2.1 2.1 0 0 0 1.523-.633 1.243 1.243 0 0 0 .234-.633 1.3 1.3 0 0 0-.234-.562A7.546 7.546 0 0 1 65.825 2.7a33.995 33.995 0 0 1-.445-6.141 91.932 91.932 0 0 1 2.227-20.367 3.815 3.815 0 0 1 .328-.961c.234-.516 1.969-.773 5.18-.773a9.618 9.618 0 0 1 4.078.633 3.13 3.13 0 0 0 1.289.375 1.077 1.077 0 0 0 .961-.7 2.379 2.379 0 0 0 .257-1.016 2.916 2.916 0 0 0-1.641-2.156 7.131 7.131 0 0 0-2.789-1.172 18.3 18.3 0 0 0-2.109-.141l-2.648.047c-.844 0-1.289-.281-1.336-.8a19.485 19.485 0 0 1 .867-3.047c.961-3.023 1.734-5.32 2.344-6.937a4.093 4.093 0 0 0 .258-1.172c0-.914-.633-1.617-1.875-2.109a2.989 2.989 0 0 0-1.008-.187c-.914 0-1.547.633-1.875 1.875L64.63-30.633a1.806 1.806 0 0 1-1.5 1.5l-6.187.82c-1.289.141-1.922.609-1.922 1.43a2.546 2.546 0 0 0 .422 1.336c.727 1.172 1.359 1.734 1.969 1.734a10.035 10.035 0 0 0 3.516-.516 4.315 4.315 0 0 1 1.781-.445c.234 0 .375.141.375.445 0 .234-.047.563-.094 1.008A104.448 104.448 0 0 0 60.974-4.9c0 4.359.375 7.594 1.148 9.656a4.674 4.674 0 0 0 2.742 2.674 1.333 1.333 0 0 0 .774.211zm8.94-10.2a4.121 4.121 0 0 1-.211-1.523 20.645 20.645 0 0 1 1.594-7.289 8.37 8.37 0 0 1 1.921-3.229 6.9 6.9 0 0 1 .68 3.07 13.976 13.976 0 0 1-1.406 5.906 6.405 6.405 0 0 1-2.578 3.069zm.75 4.1a4.212 4.212 0 0 0 1.641-.4 8.251 8.251 0 0 0 3.8-4.359 15.044 15.044 0 0 0 1.52-5.082c.047-1.219.047-1.875.047-2.016a7.419 7.419 0 0 0-2.016-5.672 2.2 2.2 0 0 1-.656-1.008c-.258-1.594-1.312-2.391-3.07-2.391a2.884 2.884 0 0 0-2.6 1.664 35.164 35.164 0 0 0-2.789 6.68 21.687 21.687 0 0 0-1.2 6.188 7.078 7.078 0 0 0 .469 2.7A5.456 5.456 0 0 0 72.843.773a5.437 5.437 0 0 0 2.485.774zm13.58-1.635c-.281 0-.422-.187-.422-.586v-1.1c0-7.242 1.969-13.1 5.953-17.461.516-.539.867-.82 1.1-.82.188 0 .281.188.281.586 0 .844-.7 3.211-2.156 7.055a224.31 224.31 0 0 0-3.258 9.07c-.724 2.15-1.193 3.256-1.498 3.256zm13.055 13.875q1.828-.07 1.828-.773a1.139 1.139 0 0 0-.562-1.008 17.206 17.206 0 0 1-2.414-9.562c-.047-3.867-.047-6.047-.047-6.375a77.57 77.57 0 0 1 1.969-18.469c.727-2.977 1.781-6.68 3.07-11.039a17.762 17.762 0 0 0 .82-3.844c-.047-.914-.727-1.547-2.016-1.875a6.272 6.272 0 0 0-1.055-.094c-.727.047-1.289.773-1.734 2.156l-2.156 7.242a39.784 39.784 0 0 1-1.734 4.9c-.516 1.2-1.711 1.828-3.539 1.828a5.276 5.276 0 0 0-4.43 2.484 31.553 31.553 0 0 0-5.555 17.531 17.626 17.626 0 0 0 .469 4.317c.586 2.32 1.922 3.469 4.078 3.469 1.5 0 2.742-1.406 3.75-4.242.539-1.43 1.734-5.18 3.7-11.227.328-1.008.563-1.523.68-1.523.047 0 .094.094.094.281-.141 1.242-.258 4.664-.258 10.219a33.528 33.528 0 0 0 1.547 11.18c1.055 2.93 2.2 4.43 3.4 4.43zm7.51-16.336a4.121 4.121 0 0 1-.211-1.523 20.645 20.645 0 0 1 1.594-7.289 8.37 8.37 0 0 1 1.922-3.234 6.9 6.9 0 0 1 .68 3.07 13.976 13.976 0 0 1-1.406 5.906 6.405 6.405 0 0 1-2.579 3.07zm.75 4.1a4.212 4.212 0 0 0 1.641-.4 8.251 8.251 0 0 0 3.8-4.359 15.044 15.044 0 0 0 1.52-5.086c.047-1.219.047-1.875.047-2.016a7.419 7.419 0 0 0-2.016-5.672 2.2 2.2 0 0 1-.656-1.008c-.258-1.594-1.312-2.391-3.07-2.391a2.884 2.884 0 0 0-2.6 1.664 35.164 35.164 0 0 0-2.789 6.68 21.687 21.687 0 0 0-1.2 6.188 7.078 7.078 0 0 0 .469 2.7 5.456 5.456 0 0 0 2.367 2.93 5.437 5.437 0 0 0 2.487.772zm13.44-.211a9.375 9.375 0 0 0 5.037-3.021q2.32-2.355 2.32-3.586v-1.36c-.047-1.477-1.594-2.391-4.617-2.719-1.594-.211-2.391-.82-2.437-1.922a14.44 14.44 0 0 1 3.586-9.117 2.813 2.813 0 0 0 .727-1.641c0-.539-.68-1.008-1.969-1.43a2.276 2.276 0 0 0-.867-.164c-1.969 0-3.609 2.109-4.9 6.4a20.1 20.1 0 0 0-1.148 5.461c0 2.508 1.289 3.938 3.844 4.336 1.523.234 2.391.563 2.531.891a2.376 2.376 0 0 1 .258.773c0 .82-.82 2.016-2.414 3.563-1.2 1.148-1.781 1.922-1.781 2.344.002.819.635 1.194 1.83 1.194zm26.458.492a6.662 6.662 0 0 0 5.672-2.506 8.172 8.172 0 0 0 1.57-3.984c0-.375-.187-.562-.516-.562h-.633a1.439 1.439 0 0 0-1.1.469c-2.25 2.508-3.75 3.75-4.453 3.75a1.207 1.207 0 0 1-.633-.187 2.3 2.3 0 0 1-1.055-2.156 24.572 24.572 0 0 1 2.6-11.039 4.615 4.615 0 0 1 2.672-2.7 5.57 5.57 0 0 0 1.5-.586.81.81 0 0 0 .234-.609c0-1.453-1.148-2.156-3.445-2.156a3.412 3.412 0 0 0-2.883 1.336 23.067 23.067 0 0 0-2.977 5.273c-1.687 3.8-2.555 6.961-2.555 9.469a5.642 5.642 0 0 0 .867 3.211 6.053 6.053 0 0 0 5.135 2.979zm13.839-4.381a4.121 4.121 0 0 1-.211-1.523 20.645 20.645 0 0 1 1.594-7.289 8.37 8.37 0 0 1 1.922-3.234 6.9 6.9 0 0 1 .68 3.07 13.976 13.976 0 0 1-1.406 5.906 6.405 6.405 0 0 1-2.579 3.07zm.75 4.1a4.212 4.212 0 0 0 1.641-.4 8.251 8.251 0 0 0 3.8-4.359 15.044 15.044 0 0 0 1.52-5.086c.047-1.219.047-1.875.047-2.016a7.419 7.419 0 0 0-2.016-5.672 2.2 2.2 0 0 1-.656-1.008c-.258-1.594-1.312-2.391-3.07-2.391a2.884 2.884 0 0 0-2.6 1.664 35.164 35.164 0 0 0-2.789 6.68 21.687 21.687 0 0 0-1.2 6.188 7.078 7.078 0 0 0 .469 2.7 5.456 5.456 0 0 0 2.367 2.93 5.437 5.437 0 0 0 2.487.772zm13.112-.3c.961 0 1.828-.7 2.648-2.156 3.352-6 5.133-9.023 5.273-9.023.047 0 .094.094.094.281 0 .258-.047.68-.094 1.266-.047.609-.094 2.109-.094 4.547a5.419 5.419 0 0 0 1.923 4.215 2.6 2.6 0 0 0 1.828.773 1.273 1.273 0 0 0 .8-.281.651.651 0 0 0 .4-.586 2.419 2.419 0 0 0-.094-.516c-.258-.234-.352-1.148-.352-2.789 0-1.781.727-5.719 2.2-11.766a4.364 4.364 0 0 0 .164-1.148 3.323 3.323 0 0 0-1.641-2.977 2.914 2.914 0 0 0-1.383-.375 3.921 3.921 0 0 0-2.7 1.711c-1.781 2.18-3.7 4.711-5.812 7.688-.422.633-.773.961-.914.961s-.187-.187-.187-.516a17.174 17.174 0 0 1 1.008-4.477 5.511 5.511 0 0 0 .234-1.242c-.047-.961-.7-1.641-2.016-2.062a2.866 2.866 0 0 0-.82-.141c-.8.047-1.383.656-1.617 1.922-.867 4.031-1.781 8.063-2.7 12.141a6.039 6.039 0 0 0-.094 1.055c.047 1.43.914 2.484 2.648 3.211a3.2 3.2 0 0 0 1.298.281z" transform="translate(193.431 43.922)" style="fill:#0b2739"/>
</svg>
