<svg xmlns="http://www.w3.org/2000/svg" width="270.715" height="48.164" viewBox="0 0 270.715 48.164">
    <path data-name="Path 2626" d="M-130.673-8.35c-.686 0-1-.176-1-.51 0-1.248.633-4.711 1.934-10.336a3.364 3.364 0 0 1 2.672-2.953 18.075 18.075 0 0 1 3.48-.668h1.125c1.336 0 2.057.422 2.092 1.318a4.456 4.456 0 0 1-.545 1.811 43.589 43.589 0 0 1-2.672 4.061 45.685 45.685 0 0 1-4.131 5.115c-1.373 1.442-2.34 2.162-2.955 2.162zm9.967 17.174c.826 0 1.23-.369 1.23-1.09a.675.675 0 0 0-.369-.6c-3.674-2.672-6.5-6.592-8.525-11.777a5.821 5.821 0 0 1-.211-.9 1.7 1.7 0 0 1 .721-1.336 42.038 42.038 0 0 0 9.316-10.775A6.852 6.852 0 0 0-117-21.3a3.5 3.5 0 0 0-.422-1.441 4.7 4.7 0 0 0-4.078-2.5 15.638 15.638 0 0 0-4.746.686 13.79 13.79 0 0 1-3.568.721 9.218 9.218 0 0 1-1.547-.211c-.211 0-.369.141-.4.439a5.218 5.218 0 0 1-2.074 2.443l-.914.756a1.919 1.919 0 0 0-.863 1.407 1.8 1.8 0 0 0 .949 1.354c.527.369.826.686.861.949a5.065 5.065 0 0 1 .07.615 35.637 35.637 0 0 1-.756 4.57 53.594 53.594 0 0 0-1.16 9.721c.105 2.408.51 3.814 1.2 4.2a1.976 1.976 0 0 0 .826.3c.791-.035 1.2-.686 1.23-1.951 0-3.2.176-4.781.563-4.781.193 0 .439.387.686 1.178a24.812 24.812 0 0 0 6.662 9.791 5.407 5.407 0 0 0 3.775 1.878zm4.754-15.082a.381.381 0 0 1-.369-.369 37.99 37.99 0 0 1 2.707-4.957.477.477 0 0 1 .4-.193c.246 0 .352.105.352.3a10.129 10.129 0 0 1-1.3 2.953 6.411 6.411 0 0 1-1.79 2.266zm1.371 7.559c.422 0 .9-.035 1.406-.07a6.865 6.865 0 0 0 3.023-1.406 10.271 10.271 0 0 0 2.408-2.373 3.912 3.912 0 0 0 .721-1.705 1.189 1.189 0 0 0-.4-.9.933.933 0 0 0-.492-.176c-.334 0-.791.281-1.371.861-.475.4-1.23 1-2.268 1.758-1.617 1.2-2.883 1.775-3.85 1.775-.65 0-1.09-.4-1.3-1.16a1.765 1.765 0 0 1-.07-.422c0-.334.316-.65.967-.984 1.846-.861 3.779-2.795 5.836-5.854a4.324 4.324 0 0 0 .545-1.951 3.032 3.032 0 0 0-.369-1.441 3.651 3.651 0 0 0-3.375-2.232c-1.846 0-3.533 1.582-5.15 4.746a13.111 13.111 0 0 0-1.512 4.324c-.141 1.125-.229 1.811-.229 2.127-.005 3.382 1.841 5.082 5.48 5.082zm11.732 11.092c-.176 0-.3-.3-.3-.914A74.313 74.313 0 0 1-102.2.9a5.548 5.548 0 0 1 .281-1.406 1.529 1.529 0 0 1 .211-.246c.3.246.51 1.107.615 2.514a36.217 36.217 0 0 1-.65 5.871c-.526 3.125-.93 4.707-1.106 4.76zm.246 2.83a3.048 3.048 0 0 0 2.408-1.863 10.777 10.777 0 0 0 1.266-4.395c.105-1.477.141-2.742.141-3.709 0-3.6-.492-6.416-1.512-8.42a1.2 1.2 0 0 1-.105-.51.278.278 0 0 1 .176-.281 9.6 9.6 0 0 0 1.055-.475 5.255 5.255 0 0 1 2.074-.58 2.55 2.55 0 0 1 1.3.439 1.631 1.631 0 0 0 .826.246 1.243 1.243 0 0 0 .949-.387 1.218 1.218 0 0 0 .316-.756 1.59 1.59 0 0 0-.65-1.16 2.584 2.584 0 0 0-1.23-.791 5.866 5.866 0 0 0-.721-.035 8.687 8.687 0 0 0-1.9.281 7.612 7.612 0 0 1-1.582.3c-.369 0-.545-.3-.545-.861a6.182 6.182 0 0 1 .211-1.441 31.382 31.382 0 0 0 1.266-5.8c0-.932-.58-1.406-1.758-1.406a1.069 1.069 0 0 0-.721.211 5.681 5.681 0 0 0-.932 2.426c-.615 2.373-1.02 4.342-1.266 5.906a4.587 4.587 0 0 1-2.672 3.691c-.615.3-.9.545-.932.809a3.342 3.342 0 0 0-.035.492c.035.4.352.721.967.984.615.246.949.492.984.668a1.732 1.732 0 0 0 .105.439v.316a4.614 4.614 0 0 1-.105.949 52.464 52.464 0 0 0-1.122 9.49 24.541 24.541 0 0 0 .176 2.531 2.843 2.843 0 0 0 2.672 2.654zm11.223-27.686a1.069 1.069 0 0 0 .984-.721 26.836 26.836 0 0 0 1.828-5.326c-.035-.492-.422-.932-1.266-1.283a1.464 1.464 0 0 0-.7-.158 1.127 1.127 0 0 0-1.09.721l-.176.51a13.416 13.416 0 0 0-1.16 4.184v.721a1.259 1.259 0 0 0 1.09 1.318zm-1.143 14.52c.615-.035.932-.193.967-.369a3.119 3.119 0 0 0 .035-.58 3.894 3.894 0 0 0-.07-.668 2.466 2.466 0 0 1-.109-.721 63.056 63.056 0 0 1 1.107-9.3 3.63 3.63 0 0 0 .088-.791c0-1.037-.65-1.547-1.951-1.547a1.28 1.28 0 0 0-1.371 1.055 35.121 35.121 0 0 0-.861 8.051c0 .756.035 1.547.07 2.373.105 1.67.756 2.5 1.986 2.5zm7.707-8.314a.381.381 0 0 1-.369-.369 37.99 37.99 0 0 1 2.707-4.957.477.477 0 0 1 .4-.193c.246 0 .352.105.352.3a10.129 10.129 0 0 1-1.3 2.953 6.411 6.411 0 0 1-1.79 2.265zm1.371 7.557c.422 0 .9-.035 1.406-.07a6.865 6.865 0 0 0 3.024-1.406 10.271 10.271 0 0 0 2.408-2.373 3.912 3.912 0 0 0 .721-1.705 1.189 1.189 0 0 0-.4-.9.933.933 0 0 0-.492-.176c-.334 0-.791.281-1.371.861-.475.4-1.23 1-2.268 1.758-1.617 1.2-2.883 1.775-3.85 1.775-.65 0-1.09-.4-1.3-1.16a1.765 1.765 0 0 1-.07-.422c0-.334.316-.65.967-.984 1.846-.861 3.779-2.795 5.836-5.854a4.324 4.324 0 0 0 .545-1.951 3.032 3.032 0 0 0-.369-1.441 3.651 3.651 0 0 0-3.375-2.232c-1.846 0-3.533 1.582-5.15 4.746A13.111 13.111 0 0 0-88.7-5.906c-.141 1.125-.229 1.811-.229 2.127 0 3.379 1.846 5.079 5.484 5.079zm9.605-.229c.686 0 1.143-.562 1.406-1.687a15.53 15.53 0 0 1 5.607-9.352c.105-.07.229-.141.369-.229.527-.246.826-.527.826-.826a1.02 1.02 0 0 0-.211-.562 1.171 1.171 0 0 0-1.02-.65 3.308 3.308 0 0 0-1.371.316 5.43 5.43 0 0 0-2.953 2.672c-.105.176-.176.281-.246.281-.105 0-.141-.176-.141-.545a5.1 5.1 0 0 1 .211-1.354 4.17 4.17 0 0 0 .176-.984c0-1.336-.7-1.969-2.18-1.969a1.018 1.018 0 0 0-1.09 1q-.765 4.8-1.582 12.129a1.459 1.459 0 0 0 .4 1.09 2.554 2.554 0 0 0 1.8.671zm11.557-7.33a.381.381 0 0 1-.369-.369 37.99 37.99 0 0 1 2.707-4.957.477.477 0 0 1 .4-.193c.246 0 .352.105.352.3a10.129 10.129 0 0 1-1.3 2.953 6.411 6.411 0 0 1-1.79 2.267zm1.371 7.559c.422 0 .9-.035 1.406-.07a6.865 6.865 0 0 0 3.024-1.406 10.271 10.271 0 0 0 2.408-2.373 3.912 3.912 0 0 0 .721-1.705 1.189 1.189 0 0 0-.4-.9.933.933 0 0 0-.492-.176c-.334 0-.791.281-1.371.861-.475.4-1.23 1-2.268 1.758-1.617 1.2-2.883 1.775-3.85 1.775-.65 0-1.09-.4-1.3-1.16a1.765 1.765 0 0 1-.07-.422c0-.334.316-.65.967-.984 1.846-.861 3.779-2.795 5.836-5.854a4.324 4.324 0 0 0 .545-1.951 3.032 3.032 0 0 0-.369-1.441A3.651 3.651 0 0 0-59.5-14.98c-1.846 0-3.533 1.582-5.15 4.746a13.111 13.111 0 0 0-1.512 4.324c-.146 1.129-.238 1.81-.238 2.131C-66.4-.4-64.55 1.3-60.912 1.3zM-33.6.176c.615 0 .9-.176.9-.492a.951.951 0 0 0-.141-.475 7.275 7.275 0 0 1-.615-2.848 20.051 20.051 0 0 1 .65-4.605 6.068 6.068 0 0 0 .176-1.336 2.107 2.107 0 0 0-1-2.057 1.593 1.593 0 0 0-.475-.07 2.082 2.082 0 0 0-.668.123c-.475.141-1.811 1.582-3.973 4.271-1.689 2.127-2.726 3.213-3.096 3.213-.07 0-.105-.088-.105-.193a2.62 2.62 0 0 1 .211-.756 27.445 27.445 0 0 1 3.094-6.251c.264-.334.439-.51.58-.51a1.58 1.58 0 0 1 .51.229 1.6 1.6 0 0 0 .791.176c.316 0 .615-.264.861-.756a1.325 1.325 0 0 0 .141-.686c0-.3-.246-.65-.756-1.055a2.675 2.675 0 0 0-1.687-.562 3.856 3.856 0 0 0-2.918 1.828 22.53 22.53 0 0 0-4.324 9 4.267 4.267 0 0 0-.105.9 2.75 2.75 0 0 0 1.475 2.525 3.029 3.029 0 0 0 1.406.387A2.518 2.518 0 0 0-40.84-.861a46.411 46.411 0 0 0 1.881-2.268c1.143-1.477 1.723-2.2 1.758-2.2.193 0 .264.387.264 1.178 0 2.232.932 3.639 2.83 4.254a2.377 2.377 0 0 0 .507.073zm17.33 5.555a1.571 1.571 0 0 0 1.143-.475.932.932 0 0 0 .176-.475.975.975 0 0 0-.176-.422 5.659 5.659 0 0 1-1-2.338 25.5 25.5 0 0 1-.334-4.605 68.949 68.949 0 0 1 1.67-15.275 2.861 2.861 0 0 1 .246-.721c.176-.387 1.477-.58 3.885-.58a7.213 7.213 0 0 1 3.059.475 2.347 2.347 0 0 0 .967.281.808.808 0 0 0 .721-.527 1.785 1.785 0 0 0 .193-.756A2.187 2.187 0 0 0-6.951-21.3a5.348 5.348 0 0 0-2.092-.879 13.729 13.729 0 0 0-1.582-.105l-1.986.035c-.633 0-.967-.211-1-.6a14.614 14.614 0 0 1 .65-2.285c.721-2.268 1.3-3.99 1.758-5.2a3.07 3.07 0 0 0 .193-.879c0-.686-.475-1.213-1.406-1.582a2.242 2.242 0 0 0-.756-.141c-.686 0-1.16.475-1.406 1.406l-2.443 8.561a1.355 1.355 0 0 1-1.125 1.125l-4.641.615c-.967.105-1.441.457-1.441 1.072a1.91 1.91 0 0 0 .316 1c.545.879 1.02 1.3 1.477 1.3a7.526 7.526 0 0 0 2.637-.387 3.237 3.237 0 0 1 1.336-.334c.176 0 .281.105.281.334 0 .176-.035.422-.07.756a78.336 78.336 0 0 0-1.515 13.814 22.253 22.253 0 0 0 .866 7.242 3.505 3.505 0 0 0 2.057 2 1 1 0 0 0 .576.162zM-2 2.021q.844-.105.9-.369v-.281a2.47 2.47 0 0 0-.148-.826 4.64 4.64 0 0 1-.193-1.406c0-2.373.791-5.871 2.426-10.512a2.587 2.587 0 0 0 .141-.9 1.543 1.543 0 0 0-1.16-1.406A2.428 2.428 0 0 0-1-13.9a1.75 1.75 0 0 0-1.547 1.125c-.615 1.336-1.723 3.234-3.27 5.8-1.846 2.988-3.023 4.5-3.5 4.535-.105 0-.141-.141-.141-.439a24.456 24.456 0 0 1 .9-4.781c.475-1.916.791-3.252 1-4.008a3.542 3.542 0 0 0 .07-.668c-.035-.721-.527-1.16-1.547-1.336q-1.345.053-2.162 2.162a20.159 20.159 0 0 0-1.389 5.361 35.944 35.944 0 0 0-.4 4.1 2.633 2.633 0 0 0 1.068 2.26A3.054 3.054 0 0 0-10.072 1l.791-.035A3.331 3.331 0 0 0-6.873-.281c.176-.229.686-.826 1.582-1.846a2.607 2.607 0 0 1 .193.861c.035 1.477.387 2.426 1 2.883a2.789 2.789 0 0 0 1.582.4zM5.4 1a7.031 7.031 0 0 0 3.784-2.266q1.74-1.767 1.74-2.689v-1.02c-.035-1.107-1.2-1.793-3.463-2.039-1.2-.158-1.793-.615-1.828-1.441a10.83 10.83 0 0 1 2.689-6.838 2.11 2.11 0 0 0 .545-1.23c0-.4-.51-.756-1.477-1.072a1.707 1.707 0 0 0-.65-.123c-1.477 0-2.707 1.582-3.674 4.8a15.077 15.077 0 0 0-.861 4.1 3 3 0 0 0 2.883 3.246c1.143.176 1.793.422 1.9.668a1.782 1.782 0 0 1 .193.58c0 .615-.615 1.512-1.811 2.672C4.473-.791 4.033-.211 4.033.105 4.033.721 4.508 1 5.4 1zM31.91.176c.615 0 .9-.176.9-.492a.951.951 0 0 0-.141-.475 7.275 7.275 0 0 1-.615-2.848 20.051 20.051 0 0 1 .65-4.605 6.068 6.068 0 0 0 .176-1.336 2.107 2.107 0 0 0-1-2.057 1.593 1.593 0 0 0-.475-.07 2.082 2.082 0 0 0-.668.123c-.475.141-1.811 1.582-3.973 4.271C25.072-5.186 24.035-4.1 23.666-4.1c-.07 0-.105-.088-.105-.193a2.62 2.62 0 0 1 .211-.756 27.445 27.445 0 0 1 3.093-6.251c.264-.334.439-.51.58-.51a1.58 1.58 0 0 1 .51.229 1.6 1.6 0 0 0 .791.176c.316 0 .615-.264.861-.756a1.325 1.325 0 0 0 .141-.686c0-.3-.246-.65-.756-1.055a2.675 2.675 0 0 0-1.687-.562 3.856 3.856 0 0 0-2.918 1.828 22.53 22.53 0 0 0-4.324 9 4.267 4.267 0 0 0-.105.9 2.75 2.75 0 0 0 1.475 2.525 3.029 3.029 0 0 0 1.407.387 2.518 2.518 0 0 0 1.828-1.037 46.411 46.411 0 0 0 1.881-2.268c1.143-1.477 1.723-2.2 1.758-2.2.193 0 .264.387.264 1.178 0 2.232.932 3.639 2.83 4.254a2.377 2.377 0 0 0 .509.073zm5.809 2.707c1.354-.105 2.689-1.652 3.955-4.676A10.223 10.223 0 0 1 43.7-5.15a25.45 25.45 0 0 0-.48 4.535A2.187 2.187 0 0 0 44.978 1.2a2.9 2.9 0 0 0 .756.105C47 1.3 48.125.07 49.056-2.373A12.41 12.41 0 0 1 50.2-4.746c.334-.475.545-.721.686-.721s.229.352.229 1.072a2.718 2.718 0 0 1-.053.615 7.066 7.066 0 0 0-.035.9 5.515 5.515 0 0 0 .4 2.3 2.7 2.7 0 0 0 2.516 1.78 1.008 1.008 0 0 0 .65-.229A.939.939 0 0 0 55 .352a1.114 1.114 0 0 0-.229-.6 6.3 6.3 0 0 1-.422-2.707 24.821 24.821 0 0 1 1.211-6.871 10 10 0 0 0 .44-2.707 1.736 1.736 0 0 0-1.3-1.687 1.781 1.781 0 0 0-.457-.07c-.984 0-2.021.932-3.182 2.777-.527.9-1.037 1.723-1.424 2.479a5.241 5.241 0 0 1-1.09 1.688c-.035 0-.07-.141-.07-.387a25.27 25.27 0 0 1 .545-3.744 4.614 4.614 0 0 0 .035-.756 1.742 1.742 0 0 0-.475-1.16 2.033 2.033 0 0 0-1.477-.545 2.2 2.2 0 0 0-1.758 1.125c-.791 1.266-1.547 2.479-2.268 3.744-1.846 3.234-2.953 4.852-3.357 4.887-.141 0-.211-.246-.211-.721a34.161 34.161 0 0 1 1.037-5.854 2.3 2.3 0 0 0 .123-.721 2.007 2.007 0 0 0-.475-1.16A1.616 1.616 0 0 0 39-13.1c-1.248 0-2.584 4.271-4.025 12.885v.936a2.073 2.073 0 0 0 1.582 1.986 3.215 3.215 0 0 0 .967.176zm22.665-15.346a1.069 1.069 0 0 0 .984-.721A26.836 26.836 0 0 0 63.2-18.51c-.035-.492-.422-.932-1.266-1.283a1.464 1.464 0 0 0-.7-.158 1.127 1.127 0 0 0-1.09.721l-.176.51a13.416 13.416 0 0 0-1.16 4.184v.721a1.259 1.259 0 0 0 1.09 1.318zm-1.142 14.52c.615-.035.932-.193.967-.369a3.119 3.119 0 0 0 .035-.58 3.894 3.894 0 0 0-.07-.668 2.466 2.466 0 0 1-.105-.721 63.056 63.056 0 0 1 1.107-9.3 3.63 3.63 0 0 0 .088-.791c0-1.037-.65-1.547-1.951-1.547a1.28 1.28 0 0 0-1.371 1.055 35.121 35.121 0 0 0-.861 8.051c0 .756.035 1.547.07 2.373.105 1.67.756 2.5 1.986 2.5zm8.814 12.516c2.057 0 3.709-1.143 4.939-3.41q3.771-7.2 3.779-17.789a12.6 12.6 0 0 0-.4-3.955 2.058 2.058 0 0 0-2.109-1.441.953.953 0 0 0-.949.545 16.282 16.282 0 0 1-1.9 2.953 48.343 48.343 0 0 1-3.129 3.744 18.289 18.289 0 0 1-2.6 2.408 15.656 15.656 0 0 1 2.5-5.8 40.093 40.093 0 0 1 3.814-5.256c.281-.316.527-.51.721-.51.176 0 .352.158.563.4a.931.931 0 0 0 .686.439 1.23 1.23 0 0 0 .686-.3.733.733 0 0 0 .369-.65 1.5 1.5 0 0 0-.334-.791c-.615-.967-1.178-1.477-1.687-1.512-.545-.035-.826-.07-.932-.07a3.3 3.3 0 0 0-2.426 1.23 33.95 33.95 0 0 0-7.233 11.729 4.29 4.29 0 0 0-.334 1.512A2.8 2.8 0 0 0 63.591.51a3.9 3.9 0 0 0 1.916.6 3.436 3.436 0 0 0 2.549-1.356c2.988-3.428 4.535-5.186 4.729-5.291a1.384 1.384 0 0 1 .352-.123c.176 0 .3.158.3.4a46.307 46.307 0 0 1-.914 8.525 25.674 25.674 0 0 1-2.584 7.348 6.715 6.715 0 0 1-.9 1.406 1.571 1.571 0 0 1-1.3.58 2.916 2.916 0 0 1-2.953-2.373.864.864 0 0 0-.826-.721c-.686 0-1.037.387-1.037 1.178a2.524 2.524 0 0 0 .756 1.775 6.245 6.245 0 0 0 4.377 2.114zM82.074-1.916a3.091 3.091 0 0 1-.158-1.143 15.484 15.484 0 0 1 1.2-5.467 6.277 6.277 0 0 1 1.441-2.426 5.173 5.173 0 0 1 .51 2.3 10.482 10.482 0 0 1-1.055 4.43 4.8 4.8 0 0 1-1.938 2.306zm.563 3.076a3.159 3.159 0 0 0 1.23-.3 6.188 6.188 0 0 0 2.848-3.27 11.283 11.283 0 0 0 1.143-3.814c.035-.914.035-1.406.035-1.512a5.564 5.564 0 0 0-1.512-4.254 1.652 1.652 0 0 1-.492-.756 2.042 2.042 0 0 0-2.3-1.793 2.163 2.163 0 0 0-1.951 1.248 26.373 26.373 0 0 0-2.092 5.01 16.265 16.265 0 0 0-.9 4.641A5.308 5.308 0 0 0 79-1.617 4.092 4.092 0 0 0 80.773.58a4.078 4.078 0 0 0 1.863.58zM92.716 1A7.031 7.031 0 0 0 96.5-1.266q1.74-1.767 1.74-2.689v-1.02c-.035-1.107-1.2-1.793-3.463-2.039-1.2-.158-1.793-.615-1.828-1.441a10.83 10.83 0 0 1 2.689-6.838 2.11 2.11 0 0 0 .545-1.23c0-.4-.51-.756-1.477-1.072a1.707 1.707 0 0 0-.65-.123c-1.477 0-2.707 1.582-3.674 4.8a15.077 15.077 0 0 0-.861 4.1A3 3 0 0 0 92.4-5.572c1.143.176 1.793.422 1.9.668a1.782 1.782 0 0 1 .193.58c0 .615-.615 1.512-1.811 2.672-.9.861-1.336 1.441-1.336 1.758-.001.615.474.894 1.37.894zm19.6-7.26a.381.381 0 0 1-.369-.369 37.99 37.99 0 0 1 2.707-4.957.477.477 0 0 1 .4-.193c.246 0 .352.105.352.3a10.129 10.129 0 0 1-1.3 2.953 6.411 6.411 0 0 1-1.792 2.268zm1.369 7.56c.422 0 .9-.035 1.406-.07a6.865 6.865 0 0 0 3.023-1.406 10.271 10.271 0 0 0 2.408-2.373 3.912 3.912 0 0 0 .721-1.705 1.189 1.189 0 0 0-.4-.9.933.933 0 0 0-.492-.176c-.334 0-.791.281-1.371.861-.475.4-1.23 1-2.268 1.758-1.617 1.2-2.883 1.775-3.85 1.775-.65 0-1.09-.4-1.3-1.16a1.765 1.765 0 0 1-.07-.422c0-.334.316-.65.967-.984 1.846-.861 3.779-2.795 5.836-5.854a4.324 4.324 0 0 0 .545-1.951 3.032 3.032 0 0 0-.369-1.441 3.651 3.651 0 0 0-3.375-2.232c-1.846 0-3.533 1.582-5.15 4.746a13.111 13.111 0 0 0-1.512 4.324c-.141 1.125-.229 1.811-.229 2.127C108.2-.4 110.046 1.3 113.685 1.3zm10.361-.368c.721 0 1.371-.527 1.986-1.617 2.514-4.5 3.85-6.768 3.955-6.768.035 0 .07.07.07.211 0 .193-.035.51-.07.949-.035.457-.07 1.582-.07 3.41a4.064 4.064 0 0 0 1.442 3.164 1.949 1.949 0 0 0 1.371.58.955.955 0 0 0 .6-.211.488.488 0 0 0 .3-.439 1.814 1.814 0 0 0-.07-.387c-.193-.176-.264-.861-.264-2.092a49.668 49.668 0 0 1 1.652-8.824 3.273 3.273 0 0 0 .123-.861 2.492 2.492 0 0 0-1.23-2.232 2.185 2.185 0 0 0-1.037-.281 2.941 2.941 0 0 0-2.021 1.283 105.528 105.528 0 0 0-4.359 5.766c-.316.475-.58.721-.686.721s-.141-.141-.141-.387a12.881 12.881 0 0 1 .756-3.357 4.133 4.133 0 0 0 .176-.932c-.035-.721-.527-1.23-1.512-1.547a2.149 2.149 0 0 0-.615-.105c-.6.035-1.037.492-1.213 1.441-.65 3.023-1.336 6.047-2.021 9.105a4.529 4.529 0 0 0-.07.791 2.7 2.7 0 0 0 1.981 2.408 2.4 2.4 0 0 0 .967.211z" transform="translate(135.648 32.941)" style="fill:#fff"/>
</svg>
