<svg xmlns="http://www.w3.org/2000/svg" width="41.073" height="24" viewBox="0 0 41.073 24">
  <g id="Grupo_605" data-name="Grupo 605" transform="translate(-186.6 -680)">
    <path id="Unión_2" data-name="Unión 2" d="M909.4-3385H897v-24h41.073v24Z" transform="translate(-710.4 4089)" fill="none"/>
    <g id="Grupo_910" data-name="Grupo 910" transform="translate(917.2 680)">
      <path id="Trazado_1269" data-name="Trazado 1269" d="M-332.7,171.25v-.4a2.327,2.327,0,0,0,1.232-.512,1.831,1.831,0,0,0,.618-1.427c0-.714-.328-1.6-1.85-1.833v-1.772a2.717,2.717,0,0,1,.717.27l.007,0a.632.632,0,0,0,.287.079.49.49,0,0,0,.492-.492.536.536,0,0,0-.287-.461,3.045,3.045,0,0,0-1.215-.4v-.376a.427.427,0,0,0-.427-.427.427.427,0,0,0-.427.427v.379a1.83,1.83,0,0,0-1.7,1.891c0,.683.3,1.526,1.7,1.785v1.874a2.78,2.78,0,0,1-1.014-.437.607.607,0,0,0-.324-.1.5.5,0,0,0-.509.5.516.516,0,0,0,.239.444,3.539,3.539,0,0,0,1.608.6v.389a.427.427,0,0,0,.427.427A.427.427,0,0,0-332.7,171.25Zm-.853-5.944v1.628c-.69-.2-.69-.584-.69-.782A.83.83,0,0,1-333.553,165.306Zm.853,2.806c.731.167.84.5.84.833a.924.924,0,0,1-.84.908Z" transform="translate(-369.152 -157.918)" fill="#0b2739"/>
      <path id="Trazado_1270" data-name="Trazado 1270" d="M-521.545,540.1a1.247,1.247,0,0,1,1.355,1.359,1.358,1.358,0,0,1-.352.987,1.358,1.358,0,0,1-1,.372h0a1.377,1.377,0,0,1-1.007-.372,1.361,1.361,0,0,1-.352-.987A1.247,1.247,0,0,1-521.545,540.1Z" transform="translate(-188.053 -521.661)" fill="#0b2739"/>
      <path id="Trazado_1271" data-name="Trazado 1271" d="M-717.6,4.011V19.989a4.062,4.062,0,0,0,1.007,3.021,4.072,4.072,0,0,0,3,.99h7.989a4.072,4.072,0,0,0,3-.99,4.048,4.048,0,0,0,1.007-3.021V15.646a7.082,7.082,0,0,0,2.1-.444l.075-.031a.686.686,0,0,0,.4-.618.682.682,0,0,0-.406-.625.68.68,0,0,0-.276-.058.68.68,0,0,0-.277.058h0a6.269,6.269,0,0,1-2.287.376,4.827,4.827,0,0,1-3.455-1.106,4.727,4.727,0,0,1-1.188-3.537,4.727,4.727,0,0,1,1.188-3.537,4.822,4.822,0,0,1,3.455-1.106,4.822,4.822,0,0,1,3.455,1.106,4.727,4.727,0,0,1,1.188,3.537h-.307a.569.569,0,0,0-.4.973l.99.99a.571.571,0,0,0,.806,0l.99-.99a.572.572,0,0,0-.406-.973h-.307a6.019,6.019,0,0,0-1.6-4.52A5.742,5.742,0,0,0-701.6,3.677a3.846,3.846,0,0,0-1-2.649A4.031,4.031,0,0,0-705.6,0h-7.989A4.038,4.038,0,0,0-716.6,1.007,4.048,4.048,0,0,0-717.6,4.011Zm1.366,0a2.817,2.817,0,0,1,.6-2.042,2.8,2.8,0,0,1,2.045-.6h7.989c1.762,0,2.547.676,2.636,2.311a5.75,5.75,0,0,0-3.714,1.465,6.019,6.019,0,0,0-1.6,4.52,6.019,6.019,0,0,0,1.6,4.52,5.743,5.743,0,0,0,3.725,1.465v4.343c0,1.929-.717,2.646-2.646,2.646h-7.989c-1.929,0-2.646-.717-2.646-2.646Z" fill="#0b2739"/>
    </g>
  </g>
</svg>
