<svg xmlns="http://www.w3.org/2000/svg" width="33.474" height="58.813" viewBox="0 0 33.474 58.813">
    <g data-name="Group 3293">
        <path data-name="Flecha derecha_2Regular (1)" d="M17.708 33.474a1.815 1.815 0 0 0 1.338-.6 1.891 1.891 0 0 0-.1-2.629L4.51 16.613 18.932 3.24a1.891 1.891 0 0 0 .119-2.629 1.788 1.788 0 0 0-2.524-.167c-.014.014-.029.024-.043.038L.6 15.223a1.893 1.893 0 0 0-.014 2.743l15.888 15.012a1.776 1.776 0 0 0 1.234.5" transform="rotate(-90 9.764 9.764)" style="fill:#019df4;fill-rule:evenodd"/>
        <path data-name="Flecha derecha_2Regular (1)" d="M17.708 33.474a1.815 1.815 0 0 0 1.338-.6 1.891 1.891 0 0 0-.1-2.629L4.51 16.613 18.932 3.24a1.891 1.891 0 0 0 .119-2.629 1.788 1.788 0 0 0-2.524-.167c-.014.014-.029.024-.043.038L.6 15.223a1.893 1.893 0 0 0-.014 2.743l15.888 15.012a1.776 1.776 0 0 0 1.234.5" transform="rotate(-90 19.643 19.643)" style="opacity:.7;fill:#019df4;fill-rule:evenodd"/>
        <path data-name="Flecha derecha_2Regular (1)" d="M17.708 33.474a1.815 1.815 0 0 0 1.338-.6 1.891 1.891 0 0 0-.1-2.629L4.51 16.613 18.932 3.24a1.891 1.891 0 0 0 .119-2.629 1.788 1.788 0 0 0-2.524-.167c-.014.014-.029.024-.043.038L.6 15.223a1.893 1.893 0 0 0-.014 2.743l15.888 15.012a1.776 1.776 0 0 0 1.234.5" transform="rotate(-90 29.406 29.406)" style="opacity:.4;fill:#019df4;fill-rule:evenodd"/>
    </g>
</svg>
