<?xml version="1.0" encoding="utf-8"?>
<!-- Generator: Adobe Illustrator 26.2.1, SVG Export Plug-In . SVG Version: 6.00 Build 0)  -->
<svg version="1.1" id="Capa_1" xmlns="http://www.w3.org/2000/svg" xmlns:xlink="http://www.w3.org/1999/xlink" x="0px" y="0px"
	 viewBox="0 0 24 24" style="enable-background:new 0 0 24 24;" xml:space="preserve">
<style type="text/css">
	.st0{fill:#0B2739;}
</style>
<g>
	<path class="st0" d="M7.8,18c-0.4,0-0.7-0.3-0.7-0.7c0-0.2,0.1-0.3,0.1-0.4l8.3-10.6c0.2-0.3,0.7-0.3,1-0.1c0.3,0.2,0.3,0.7,0.1,1
		L8.4,17.7C8.3,17.9,8.1,18,7.8,18L7.8,18z M9.1,11c-1.4,0-2.3-0.9-2.3-2.3s0.9-2.3,2.3-2.3s2.3,0.9,2.3,2.3S10.6,11,9.1,11z
		 M9.1,7.7C8.5,7.7,8.2,8,8.2,8.7s0.2,0.9,0.9,0.9s0.9-0.2,0.9-0.9S9.8,7.7,9.1,7.7z M14.8,17.6c-1.4,0-2.3-0.9-2.3-2.3
		s0.9-2.3,2.3-2.3s2.3,0.9,2.3,2.3S16.3,17.6,14.8,17.6z M14.8,14.4c-0.7,0-0.9,0.2-0.9,0.9c0,0.7,0.2,0.9,0.9,0.9s0.9-0.2,0.9-0.9
		C15.8,14.7,15.5,14.4,14.8,14.4z"/>
	<path class="st0" d="M12,24c-0.7,0-1.1-0.5-1.2-0.7c-0.2-0.3-0.4-0.7-0.6-1c-0.2-0.3-0.5-0.9-0.6-1c-0.2,0-0.8,0.4-1.1,0.5
		c-0.8,0.5-1.7,1-2.4,0.6C5.2,22,5.3,21,5.3,20c0-0.4,0-1-0.1-1.2C5,18.7,4.4,18.7,4,18.7c-1,0-2,0-2.4-0.7
		c-0.4-0.7,0.1-1.6,0.6-2.4c0.2-0.3,0.5-0.9,0.5-1.1c-0.1-0.2-0.7-0.5-1-0.6c-0.4-0.2-0.7-0.4-1-0.6C0,12.7,0,12.2,0,12
		c0-0.7,0.5-1.1,0.7-1.2c0.3-0.2,0.7-0.4,1-0.6C2,10,2.6,9.7,2.7,9.5c0-0.2-0.4-0.8-0.5-1.1C1.7,7.6,1.2,6.7,1.6,6
		C2,5.2,3,5.3,4,5.3c0.4,0,1,0,1.2-0.1C5.3,5,5.3,4.4,5.3,4c0-1,0-2,0.7-2.4c0.7-0.4,1.6,0.1,2.4,0.6c0.3,0.2,0.9,0.5,1.1,0.5
		c0.2-0.1,0.5-0.7,0.6-1c0.2-0.4,0.4-0.7,0.6-1C11.3,0,11.8,0,12,0c0.7,0,1.1,0.5,1.2,0.7c0.2,0.3,0.4,0.7,0.6,1
		c0.2,0.3,0.5,0.9,0.6,1c0.2,0,0.8-0.4,1.1-0.5c0.8-0.5,1.7-1,2.4-0.6C18.8,2,18.7,3,18.7,4c0,0.4,0,1,0.1,1.2
		C19,5.3,19.6,5.3,20,5.3c1,0,2,0,2.4,0.7c0.4,0.7-0.1,1.6-0.6,2.4c-0.2,0.3-0.5,0.9-0.5,1.1c0.1,0.2,0.7,0.5,1,0.6
		c0.4,0.2,0.7,0.4,1,0.6c0.7,0.5,0.7,1,0.7,1.2c0,0.7-0.5,1.1-0.7,1.2c-0.3,0.2-0.7,0.4-1,0.6c-0.3,0.2-0.9,0.5-1,0.6
		c0,0.2,0.4,0.8,0.5,1.1c0.5,0.8,1,1.7,0.6,2.4C22,18.8,21,18.7,20,18.7c-0.4,0-1,0-1.2,0.1c-0.1,0.2-0.1,0.8-0.1,1.2
		c0,1,0,2-0.7,2.4c-0.7,0.4-1.6-0.1-2.4-0.6c-0.3-0.2-0.9-0.5-1.1-0.5c-0.2,0.1-0.5,0.7-0.6,1c-0.2,0.4-0.4,0.7-0.6,1
		C12.7,24,12.2,24,12,24L12,24z M9.5,19.9c0.1,0,0.2,0,0.3,0c0.7,0.2,1.1,0.9,1.5,1.7c0.2,0.3,0.5,0.8,0.6,1c0.2-0.2,0.5-0.7,0.6-1
		c0.4-0.8,0.8-1.5,1.5-1.7c0.7-0.2,1.4,0.3,2.2,0.7c0.3,0.2,0.8,0.5,1,0.5c0.1-0.3,0.1-0.8,0-1.1c0-0.9,0-1.7,0.5-2.2
		c0.5-0.5,1.3-0.5,2.2-0.5c0.3,0,0.9,0,1.1,0c-0.1-0.2-0.4-0.7-0.5-1c-0.4-0.7-0.9-1.5-0.7-2.2c0.2-0.7,0.9-1.1,1.7-1.5
		c0.3-0.2,0.8-0.5,1-0.6c-0.2-0.2-0.7-0.5-1-0.6c-0.8-0.4-1.5-0.8-1.7-1.5c-0.2-0.7,0.3-1.4,0.7-2.2c0.2-0.3,0.5-0.8,0.5-1
		c-0.3-0.1-0.8-0.1-1.1,0c-0.9,0-1.7,0-2.2-0.5c-0.5-0.5-0.5-1.3-0.5-2.2c0-0.3,0-0.9,0-1.1c-0.2,0.1-0.7,0.4-1,0.5
		c-0.7,0.4-1.5,0.9-2.2,0.7c-0.7-0.2-1.1-0.9-1.5-1.7c-0.2-0.3-0.5-0.8-0.6-1c-0.2,0.2-0.5,0.7-0.6,1c-0.4,0.8-0.8,1.5-1.5,1.7
		C9.2,4.3,8.4,3.8,7.7,3.4c-0.3-0.2-0.8-0.5-1-0.5C6.6,3.1,6.6,3.7,6.7,4c0,0.9,0,1.7-0.5,2.2S4.9,6.7,4,6.7c-0.3,0-0.9,0-1.1,0
		c0.1,0.2,0.4,0.7,0.5,1c0.4,0.7,0.9,1.5,0.7,2.2c-0.2,0.7-0.9,1.1-1.7,1.5c-0.3,0.2-0.8,0.5-1,0.6c0.2,0.2,0.7,0.5,1,0.6
		c0.8,0.4,1.5,0.8,1.7,1.5c0.2,0.7-0.3,1.4-0.7,2.2c-0.2,0.3-0.5,0.8-0.5,1c0.3,0.1,0.8,0.1,1.1,0c0.9,0,1.7,0,2.2,0.5
		c0.5,0.5,0.5,1.3,0.5,2.2c0,0.3,0,0.9,0,1.1c0.2-0.1,0.7-0.4,1-0.5C8.3,20.3,8.9,19.9,9.5,19.9L9.5,19.9z"/>
</g>
</svg>
