<svg xmlns="http://www.w3.org/2000/svg" width="98" height="54.584" viewBox="0 0 98 54.584">
    <defs>
        <clipPath id="w322274hpa">
            <path d="M552.781 285.469c1.528.651 3.335 2.252 2.82 4.214-.736 2.806-4.933 1.438-5.668 4.245a3.218 3.218 0 0 0 1.056 3.106 5.441 5.441 0 0 0 2.706 1l10.707 1.825a16.871 16.871 0 0 1 6.673 2.141 8.967 8.967 0 0 1 3.994 6.787c.2 3.147-1.37 6.037-3.162 8.2-3.773 4.545-8.9 7.184-14.065 7.242-6.2.07-12.072-3.382-18.2-4.571-5.6-1.088-11.307-.267-16.951.368s-11.416 1.067-16.9-.761a20.441 20.441 0 0 1-12.921-13 16.377 16.377 0 0 1-.509-9.062c1.082-4.1 2.824-7.048 7.128-8.721s10.738-.116 18.4-1.4 10.048-5.526 18.861-5.525c6.807-.006 13.617 2.883 16.031 3.912z" transform="translate(-491.935 -281.55)" style="fill:none"/>
        </clipPath>
        <clipPath id="v20lu8u73b">
            <path data-name="SVGID" d="M956.377 461.873v-4.085h-3.362v4.085a.633.633 0 0 0-.236.462c0 .531.859.961 1.918.961s1.918-.43 1.918-.961a.633.633 0 0 0-.238-.462z" transform="translate(-952.778 -457.788)" style="fill:none"/>
        </clipPath>
    </defs>
    <g data-name="Group 661">
        <path data-name="Path 795" d="M552.781 285.469c1.528.651 3.335 2.252 2.82 4.214-.736 2.806-4.933 1.438-5.668 4.245a3.218 3.218 0 0 0 1.056 3.106 5.441 5.441 0 0 0 2.706 1l10.707 1.825a16.871 16.871 0 0 1 6.673 2.141 8.967 8.967 0 0 1 3.994 6.787c.2 3.147-1.37 6.037-3.162 8.2-3.773 4.545-8.9 7.184-14.065 7.242-6.2.07-12.072-3.382-18.2-4.571-5.6-1.088-11.307-.267-16.951.368s-11.416 1.067-16.9-.761a20.441 20.441 0 0 1-12.921-13 16.377 16.377 0 0 1-.509-9.062c1.082-4.1 2.824-7.048 7.128-8.721s10.738-.116 18.4-1.4 10.048-5.526 18.861-5.525c6.807-.006 13.617 2.883 16.031 3.912z" transform="translate(-481.572 -281.55)" style="fill:#e9eae8"/>
        <g data-name="Group 656">
            <g data-name="Group 655" transform="translate(10.363)" style="clip-path:url(#w322274hpa)">
                <g data-name="Group 654">
                    <path data-name="Path 796" d="M678.711 316.971c6.041-1.9 12.67-1.878 18.977-1.225s12.477 1.9 18.818 2.374 13.036.1 18.817-2.3" transform="translate(-663.294 -312.556)" style="stroke:#fff;stroke-miterlimit:10;fill:none"/>
                    <path data-name="Path 797" d="M453.567 386.242c12.593-3.876 26.134-2.474 39.211-.862s26.508 3.38 39.289.179" transform="translate(-456.735 -375.312)" style="stroke:#fff;stroke-miterlimit:10;fill:none"/>
                    <path data-name="Path 798" d="M455.325 454.4c14.731-4.328 30.461-2.868 45.736-1.315s30.974 3.128 45.765-.99" transform="translate(-458.347 -437.5)" style="stroke:#fff;stroke-miterlimit:10;fill:none"/>
                    <path data-name="Path 799" d="M438.092 551.643a191.547 191.547 0 0 1 52.435-4.052c17.881 1.089 36.216 4.642 53.421-.348" transform="translate(-442.537 -525.307)" style="stroke:#fff;stroke-miterlimit:10;fill:none"/>
                    <path data-name="Path 800" d="M511.673 622.678c16.463-5.286 34.192-4.8 51.412-3.234s34.474 4.17 51.721 2.937" transform="translate(-510.044 -590.578)" style="stroke:#fff;stroke-miterlimit:10;fill:none"/>
                    <path data-name="Path 801" d="M589.42 702.9a112.83 112.83 0 0 1 31.923-3.191c8.813.381 17.552 1.8 26.358 2.314s17.844.1 26.084-3.051" transform="translate(-581.374 -664.513)" style="stroke:#fff;stroke-miterlimit:10;fill:none"/>
                </g>
            </g>
        </g>
        <path data-name="Path 802" d="M367.431 835.46h95.919a1.039 1.039 0 0 0 .461-1.97l-12.371-6.125a15.057 15.057 0 0 0-6.681-1.564h-58.737a15.059 15.059 0 0 0-6.681 1.563l-12.371 6.126a1.039 1.039 0 0 0 .461 1.97" transform="translate(-366.39 -780.876)" style="fill:#0b2739"/>
        <path data-name="Path 803" d="M443.371 835.46h85.291l-15.876-9.66h-53.538z" transform="translate(-437.017 -780.876)" style="fill:#c7dbe6"/>
        <path data-name="Path 804" d="M563.545 835.46H629l-12.187-9.66h-41.085z" transform="translate(-547.271 -780.876)" style="fill:#0b2739"/>
        <path data-name="Path 805" d="M785.96 713.427c-2.466-.278-4.792.362-7.447.8a26.384 26.384 0 0 1-2.711.323 19.308 19.308 0 0 1-2.994-.045.225.225 0 0 0-.223.162c-2.059.172-4.118.4-6.167.545-3.211.228-6.356.44-9.284-.9-2.355-1.069-4.915-2.209-7.686-1.519-.351.089-.969 2.31-.623 2.221a12.53 12.53 0 0 1 4.264-.24c-.156 1.085.768 1.887 1.525 2.578a48.733 48.733 0 0 0 4.2 3.261q2.305 1.7 4.653 3.329c1.13.785 2.193 1.831 3.646 1.759 3.223-.162 6.284-1.926 8.95-3.6a94.474 94.474 0 0 0 9.089-6.852c.173-.144 1.069-1.8.807-1.831" transform="translate(-717.162 -677.007)" style="fill:#106da1"/>
        <path data-name="Path 806" d="M844.069 742.2c-.16-.026-.322-.058-.482-.088a.978.978 0 0 0 .121-.18.281.281 0 0 0-.074-.329 2.3 2.3 0 0 0-1.534-.287 9.729 9.729 0 0 1-1.482.121 10.243 10.243 0 0 1-2.184-.642c-2.07-.688-4.182-1.312-6.19-2.17A15.359 15.359 0 0 1 829 736.8c-.736-.555-1.4-1.206-2.188-1.689-.372-.229-2.014-1.234-2.06-.093-.041 1 1.964 1.837 2.657 2.214a35.59 35.59 0 0 1 5.809 4.433c1.275 1.081 2.447 2.611 4.244 2.5a25.3 25.3 0 0 0 6.649-1.436.28.28 0 0 0-.047-.537" transform="translate(-786.919 -697.097)" style="fill:#22445d"/>
        <path data-name="Path 807" d="M958.845 846.454c-.1-.613-.438-.633-.96-.62-.966.024-1.649-.6-2.634-.421a5.8 5.8 0 0 1-2.025.127c-.24-.036-.582-.185-.832-.088a1.767 1.767 0 0 0-.817 1.645.156.156 0 0 0 .131.142.147.147 0 0 0 .122.1c1.071.165 1.838 1.138 2.814 1.57a5.961 5.961 0 0 0 1.29.391 3.441 3.441 0 0 1 .913.215 2.564 2.564 0 0 0 .519.334c1.177.193 1.6-2.658 1.479-3.4" transform="translate(-903.267 -798.839)" style="fill:#ecbfb0"/>
        <path data-name="Path 808" d="M750.389 724.757c-1.238-1.425-7.248-5.938-8.671-7.159a16.972 16.972 0 0 0-4.5-2.911 7.849 7.849 0 0 0-4.421-.716c-1.242.3-1.572.957-1.944 2.071a5.409 5.409 0 0 0-.244 1.121 5.054 5.054 0 0 0 .585 3.025 9.813 9.813 0 0 0 3.628 3.115c1.556.981 13.616 3.919 14.278 3.48a2.5 2.5 0 0 0 .569-.646 2.564 2.564 0 0 0 .723-1.377" transform="translate(-700.512 -678.178)" style="fill:#106da1"/>
        <path data-name="Path 809" d="M1005.2 852.63h-.009c-.547.049-1.135.219-1.2.854a6.257 6.257 0 0 0 .123 1.015 5.759 5.759 0 0 0 .168 1.3c.062.211.362.092.315-.112a3.63 3.63 0 0 1 .814-2.794c.1-.157-.084-.344-.21-.261" transform="translate(-951.357 -805.471)" style="fill:#d2a99e"/>
        <path data-name="Path 810" d="M748.936 762.191a12.917 12.917 0 0 0-4.3-1.406 37.869 37.869 0 0 1-5.13-1.178 19.309 19.309 0 0 1-5.6-2.674 25.34 25.34 0 0 1-3.309-3.112 5.054 5.054 0 0 0 .585 3.025 9.813 9.813 0 0 0 3.628 3.115c1.556.981 13.616 3.919 14.278 3.48a2.492 2.492 0 0 0 .569-.646 2.864 2.864 0 0 0-.729-.6" transform="translate(-700.511 -714.837)" style="fill:#22445d"/>
        <path data-name="Path 811" d="M930.249 863.124a2.591 2.591 0 0 0 .52-.334 3.411 3.411 0 0 1 .913-.215 5.972 5.972 0 0 0 1.29-.392c.976-.432 1.742-1.4 2.813-1.57a.146.146 0 0 0 .122-.1.155.155 0 0 0 .13-.142 1.764 1.764 0 0 0-.817-1.645c-.249-.1-.591.052-.831.088a5.8 5.8 0 0 1-2.025-.127c-.985-.179-1.668.446-2.633.421-.523-.013-.86.007-.96.62-.12.737.3 3.588 1.479 3.4" transform="translate(-882.33 -811.017)" style="fill:#ecbfb0"/>
        <path data-name="Path 812" d="M996.344 735.254a2.493 2.493 0 0 0 .569.646c.663.438 12.722-2.5 14.279-3.48a9.821 9.821 0 0 0 3.627-3.115 5.058 5.058 0 0 0 .586-3.025 5.4 5.4 0 0 0-.245-1.121c-.371-1.114-.869-2.205-2.111-2.506a7.846 7.846 0 0 0-4.42.716 16.965 16.965 0 0 0-4.5 2.911c-1.422 1.221-7.268 6.029-8.507 7.454a3.584 3.584 0 0 0 .726 1.517" transform="translate(-943.666 -686.146)" style="fill:#106da1"/>
        <path data-name="Path 813" d="M947.3 865.905h.009c.547.05 1.136.22 1.2.855a6.2 6.2 0 0 1-.122 1.015 5.8 5.8 0 0 1-.169 1.3c-.061.211-.363.092-.315-.113a3.629 3.629 0 0 0-.814-2.794c-.1-.157.084-.344.21-.261" transform="translate(-899.125 -817.65)" style="fill:#d2a99e"/>
        <path data-name="Path 814" d="M1004.531 776.752a2.494 2.494 0 0 0 .569.646c.663.438 12.722-2.5 14.279-3.48a9.82 9.82 0 0 0 3.627-3.115 5.058 5.058 0 0 0 .586-3.026 25.32 25.32 0 0 1-3.31 3.112 19.288 19.288 0 0 1-5.595 2.673 37.968 37.968 0 0 1-5.13 1.178 12.917 12.917 0 0 0-4.3 1.405 2.878 2.878 0 0 0-.729.6" transform="translate(-951.854 -727.645)" style="fill:#22445d"/>
        <path data-name="Path 815" d="M861.766 734.215c-.152-.155 1.578 3.046 16.746 1.418.954-.1 1.191-.709 1.714-1.513-6.414-1.011-18.392.082-18.29.1z" transform="translate(-820.867 -696.368)" style="fill:#22445d"/>
        <path data-name="Rectangle 238" transform="translate(45.622 14.639)" style="fill:#b74941" d="M0 0h8.229v4.267H0z"/>
        <path data-name="Path 816" d="M879.57 519.605s-11.77 2.589-18.527.081a4.281 4.281 0 0 0 2.249-2.274 15.4 15.4 0 0 0 1.2-5.579 36.345 36.345 0 0 0-.269-4.555c-.014-.2-.026-.4-.034-.6a7.591 7.591 0 0 1 1.242-4.968c1.084-1.44 2.925-1.171 5.082-1.827h.194c1.623.863 4 .387 5.083 1.827a7.59 7.59 0 0 1 1.242 4.968c-.007.168-.016.334-.027.5a38.471 38.471 0 0 0-.276 4.656 15.026 15.026 0 0 0 1.133 5.3 7.97 7.97 0 0 0 1.708 2.471z" transform="translate(-820.211 -481.855)" style="fill:#fff"/>
        <path data-name="Path 817" d="M961.473 459.575v-1.787s-1.489 1.893-3.14 1.988a3.724 3.724 0 0 0 3.14-.2" transform="translate(-909.47 -443.24)" style="fill:#d2a99e"/>
        <path data-name="Path 818" d="M956.377 461.873v-4.085h-3.362v4.085a.633.633 0 0 0-.236.462c0 .531.859.961 1.918.961s1.918-.43 1.918-.961a.633.633 0 0 0-.238-.462z" transform="translate(-904.374 -443.24)" style="fill:#ecbfb0"/>
        <g data-name="Group 658">
            <g data-name="Group 657" transform="translate(48.404 14.548)" style="clip-path:url(#v20lu8u73b)">
                <path data-name="Path 819" d="M946.589 409a4.613 4.613 0 0 1-.578 2.381 3.388 3.388 0 0 1-2.769 1.856 3.956 3.956 0 0 1-2.464-1.151A4.11 4.11 0 0 1 939.9 409c0-2.34 1.5-4.237 3.347-4.237s3.342 1.896 3.342 4.237z" transform="translate(-940.959 -409.139)" style="fill:#d2a99e"/>
            </g>
        </g>
        <path data-name="Path 820" d="M942.158 388.373a5.9 5.9 0 0 1-.578 2.725 3.407 3.407 0 0 1-2.769 2.125 3.765 3.765 0 0 1-2.464-1.318 5.187 5.187 0 0 1-.882-3.532c0-2.679 1.5-4.85 3.347-4.85s3.346 2.171 3.346 4.85z" transform="translate(-888.489 -375.106)" style="fill:#ecbfb0"/>
        <g data-name="Group 659">
            <path data-name="Path 821" d="m1061.364 547.913-1.494.872a3.765 3.765 0 0 1 .7-.082.121.121 0 0 1 .047.231l-2.378.9.012-.014c-2.034 1.2-4.9 1.791-7.373 2.618a10.246 10.246 0 0 1-4.036.922c-1.409-.133-2.9-1.332-4.072-2.132-.735-.5-1.451-1.046-2.207-1.516a10.019 10.019 0 0 0-1.385-.73l1.987-2.722a28.4 28.4 0 0 1 2.551 1.713q.471.354.925.727.268.218.528.443.8.69 1.551 1.436a2.262 2.262 0 0 0 1.149.76 2.132 2.132 0 0 0 .825-.083q2.7-.64 5.351-1.477c.257-.081.512-.163.769-.247l.525-.174a1.826 1.826 0 0 0 .97-.577 1.609 1.609 0 0 0 .222-.932c0-.325.565-.9.9-1.146.263-.19.49-.116.348.177-.059.121-.352.457-.426.57-.216.33.427 1.035.815.962s1.805-.746.081-1.35a.239.239 0 0 1-.163-.169c-.023-.151.209-.184.357-.145a2.387 2.387 0 0 1 .826.369c.256.142.344.281.34.478a3.848 3.848 0 0 1 1.331-.716c.129-.044.221.135.124.23l-1.461 1.224a5.818 5.818 0 0 1 1.671-.656.13.13 0 0 1 .09.236z" transform="translate(-983.637 -524.406)" style="fill:#ecbfb0"/>
            <path data-name="Path 822" d="M1005.195 519.8c-.361-.271-2.635-2.017-2.93-3.678-.134-.756.255-2.552 1.552-2.719 2.078-.268 4.168 2.7 6.01 4.41-.928 1.393-2.3 1.623-4.632 1.987z" transform="translate(-949.753 -494.252)" style="fill:#fff"/>
            <path data-name="Path 823" d="M1023.774 511.614a4.778 4.778 0 0 1 1.566.655l-.527.008-.727-.274-.386-.275z" transform="translate(-969.442 -492.623)" style="fill:#fff"/>
        </g>
        <g data-name="Group 660">
            <path data-name="Path 824" d="M641.277 547.671a5.789 5.789 0 0 1 1.67.656l-1.461-1.224c-.1-.1 0-.274.124-.231a3.862 3.862 0 0 1 1.332.716c0-.2.084-.335.34-.477a2.4 2.4 0 0 1 .827-.369c.148-.039.38-.006.357.146a.236.236 0 0 1-.162.169c-1.725.6-.307 1.279.081 1.351s1.031-.632.815-.963c-.074-.113-.367-.449-.426-.57-.141-.293.086-.367.349-.176.336.243.9.821.9 1.145a1.614 1.614 0 0 0 .222.932 1.835 1.835 0 0 0 .97.577q3.277 1.1 6.644 1.9a2.138 2.138 0 0 0 .825.083 2.271 2.271 0 0 0 1.149-.761 28.69 28.69 0 0 1 5.555-4.32l1.987 2.722a21.056 21.056 0 0 0-3.594 2.246c-1.168.8-2.662 2-4.072 2.132a10.25 10.25 0 0 1-4.035-.921c-2.473-.827-5.339-1.422-7.374-2.619l.012.014-2.379-.9a.121.121 0 0 1 .047-.231 3.754 3.754 0 0 1 .7.081l-1.495-.872a.13.13 0 0 1 .092-.236z" transform="translate(-618.448 -524.402)" style="fill:#ecbfb0"/>
            <path data-name="Path 825" d="M860.33 519.8c.361-.271 2.635-2.017 2.93-3.678.134-.756-.255-2.552-1.552-2.719-2.078-.268-4.169 2.7-6.01 4.41.928 1.393 2.3 1.623 4.632 1.987" transform="translate(-815.308 -494.252)" style="fill:#fff"/>
            <path data-name="Path 826" d="M907.562 510.433s-.224.157-1.267.752l.527.008.726-.274.072-.4z" transform="translate(-861.728 -491.54)" style="fill:#0196ed"/>
        </g>
        <path data-name="Path 827" d="M900.481 383.216c-.2-1.278.755-2.405 1.374-3.542a5.869 5.869 0 0 0 .688-3.906 4.209 4.209 0 0 0-2.394-3.063 3.645 3.645 0 0 0-2.407-.129l-.06.007a1.239 1.239 0 0 0-.365-.579 2.447 2.447 0 0 0-1.31-.5 6.362 6.362 0 0 0-4.651 1.106 4.99 4.99 0 0 0-2.031 4.241 23.366 23.366 0 0 0 .9 3.412c.263 1.149.141 3.192-.8 3.9a2.619 2.619 0 0 0 2.7-.956c.86-.266 1.088-1.686 1.254-2.571a11.663 11.663 0 0 0 0-2.694 4.391 4.391 0 0 1 .508-2.608 1.9 1.9 0 0 1 2.327-.806 2.315 2.315 0 0 1 2.05.149 3.375 3.375 0 0 1 .924 1.993 5.832 5.832 0 0 1-.017 1.59c-.2 1.586-.184 4.406 1.317 4.955" transform="translate(-846.148 -364.017)" style="fill:#e25d4e"/>
        <path data-name="Path 828" d="M889.508 593.7a36.869 36.869 0 0 0-.271-4.588s.511.137.421.573c-.192.915.14 5.2 5.161 3.177.093-.037.077.018-.024.146-.271.345-2.163.416-3.2 1.4a21.008 21.008 0 0 0-3.283 4.868 15.4 15.4 0 0 0 1.196-5.576z" transform="translate(-845.23 -563.722)" style="fill:#dfdfdf;mix-blend-mode:multiply;isolation:isolate"/>
        <path data-name="Path 829" d="M992.388 631.274c-.824.758-2.262 1.107-4.711.185-.431-.162 2.348 1.357 3.981.626a2.568 2.568 0 0 0 .73-.526c.131-.147.294-.491 0-.285z" transform="translate(-936.351 -602.347)" style="fill:#dfdfdf;mix-blend-mode:multiply;isolation:isolate"/>
        <path data-name="Path 830" d="M490.476 524.351s-3.567.255-3.3 5.711a2.951 2.951 0 0 0-1.528 3.185c.5 2.147.672 1.671.672 1.671a6.43 6.43 0 0 0-.636 5.307c1.011 2.826 3.257 8.368 3.257 8.368s2.784-7.122 2.94-8.674c.2-2 .522-3.589-.685-4.832a2.476 2.476 0 0 0 .491-3.751c-.968-1.285-.974-1.18-.468-2.35a4.627 4.627 0 0 0-.74-4.634" transform="translate(-475.532 -504.309)" style="fill:#3c7521"/>
        <path data-name="Path 831" d="M437.2 610.662s.476-8.644-.51-12.51-4.6-6.842-6.424-6.522a2.194 2.194 0 0 0 .864 2.628c1.516.922.4 1.377.3 1.764a3.38 3.38 0 0 0 1.247 2.54c.85.471 1.639.547 1.243 2.571s.545 1.947 1.193 3.007 2.223 4.436 2.087 6.522" transform="translate(-424.862 -566.013)" style="fill:#b6dd9d"/>
        <path data-name="Path 832" d="M487.6 803.65h5.345s.607 7.486-2.521 7.745-2.824-5.383-2.824-7.745" transform="translate(-477.583 -760.553)" style="fill:#22445d"/>
        <path data-name="Path 833" d="M1115.526 576.66a13.106 13.106 0 0 1-5.8 2.076 3.632 3.632 0 0 1-1.745-.143 3.766 3.766 0 0 1-.981-.65 4.989 4.989 0 0 1-1.647-2.116q.267.218.528.442.8.69 1.551 1.436a2.262 2.262 0 0 0 1.149.76 2.13 2.13 0 0 0 .825-.083q2.7-.64 5.351-1.477.386-.12.769-.245z" transform="translate(-1044.355 -551.536)" style="fill:#d2a99e"/>
    </g>
</svg>
