<?xml version="1.0" encoding="UTF-8"?>
<svg xmlns="http://www.w3.org/2000/svg" viewBox="0 0 702.8 702.8"><path fill="#019df4" fill-rule="evenodd" d="M527.4 259.1c-7 6.5-8.4 19.2-8.4 28.8 0 9.5 1.4 22.2 8.4 28.5 6.9 6.4 20 7.7 29.8 7.7s22.8-1.3 29.6-7.6c6.9-6.4 8.3-19 8.3-28.6 0-9.6-1.5-22.3-8.4-28.8-6.9-6.4-19.9-7.6-29.6-7.6s-22.7 1.2-29.7 7.6zm-30.4 88c-14.6-13.4-22-33.3-22-59.2 0-25.9 7.4-45.9 22-59.4 14-13 34.3-19.5 60.2-19.5 26 0 46.1 6.5 60.2 19.6 14.5 13.5 21.8 33.5 21.8 59.4s-7.4 45.8-21.8 59.2c-14 12.9-34.2 19.5-60.2 19.5-26-.1-46.2-6.7-60.2-19.6zm-380.9-88.3c-6.9 6.5-8.4 19.2-8.4 28.8 0 9.5 1.5 22.2 8.3 28.6 6.8 6.3 19.9 7.6 29.6 7.6s22.8-1.3 29.8-7.7c6.9-6.4 8.4-19 8.4-28.5s-1.5-22.3-8.4-28.8c-7-6.4-20-7.7-29.7-7.7s-22.8 1.3-29.6 7.7zm29.6 107.6c-25.9 0-46.1-6.6-60.1-19.5-14.5-13.4-21.9-33.3-21.9-59.2 0-25.9 7.4-45.9 21.9-59.4 14-13 34.2-19.6 60.1-19.6s46.2 6.5 60.2 19.5c14.6 13.5 22 33.5 22 59.4s-7.4 45.8-22 59.3c-14.1 12.9-34.3 19.5-60.2 19.5zm203.2-202.8c-12.2-.1-22-9.6-21.9-21.4l.5-91.8c.1-11.7 9.9-21.1 22-21.1h.1c12.2.1 22 9.6 21.9 21.4l-.5 91.8c-.1 11.7-9.9 21.1-22 21.1h-.1zm-95.6 21.2L212 144.5c-8.5-8.3-8.5-21.7.2-30 8.6-8.2 22.6-8.2 31.1.1l41.3 40.3c8.5 8.3 8.5 21.8-.1 30.1-4.3 4.1-9.9 6.2-15.5 6.2-5.7 0-11.4-2.2-15.7-6.4zm176 6.3c-5.5 0-11.2-2-15.5-6.1-8.7-8.2-8.7-21.6-.2-30l41.3-40.3c8.5-8.4 22.5-8.4 31.2-.2 8.6 8.2 8.7 21.7.1 30l-41.3 40.3c-4.2 4.2-9.9 6.3-15.6 6.3zm228 439.9l1.4-142.3c0-9.7-1.9-23.2-11.2-32.5-10.4-10.5-27.7-12.6-40.4-12.6h-100c-1.3 0-2.9-.1-4.3 0h-.4c-4.6.1-9.5-.1-14.4 0-5.3.1-13.4 0-18.1-1.7-3.8-1.3-10.8-6.2-13.5-9.2-3-3.3-11-14.2-11-14.2L374 325.9v50.7l50.3 63.7 21.8 27.5s5.1 5.8 7 10.2c1.8 4 2.3 12.6 2.3 15.3l-.5 44.8-1 92.9h122.3v-97.4c0-11.8 9.9-21.2 22-21.2s22 9.5 22 21.2V631h37.1zM328.8 376.3v-50.7l-71.4 92.7s-8 10.9-11 14.2c-2.7 3.1-9.7 7.9-13.5 9.2-4.7 1.7-12.9 1.8-18.1 1.7-4.9-.1-9.9.1-14.4 0H95.7c-12.7 0-29.9 2.2-40.4 12.7-9.2 9.3-11.2 22.8-11.2 32.5l1.4 142.3h37.1v-97.4c0-11.7 9.9-21.2 22-21.2s22 9.5 22 21.2v97.4h122.3l-.9-93-.6-44.8c0-2.7.6-11.3 2.3-15.3 1.9-4.4 7-10.2 7-10.2l21.8-27.5 50.3-63.8zm350.5 50.5c15.4 15.4 23.5 36.8 23.5 62L701 664.6c0 4.9-4.2 8.9-9.3 8.9H418.8c-5.1 0-9.3-4-9.3-8.9l1.7-170.8-59.9-75.8-59.7 75.6 1.8 170.8c0 5-4.2 8.9-9.4 8.9H11.1c-5.2 0-9.3-4-9.3-8.9L0 488.5c0-25.1 8.1-46.5 23.5-62 16.8-16.8 41.7-25.7 72.1-25.7h100c6.7 0 13.1.6 19.2 1.5l118.1-153.2.1-.1.2-.3c.3-.4.8-.7 1.1-1 1.1-1.3 2.3-2.6 3.7-3.5.6-.4 1.2-.6 1.8-.9 1.2-.7 2.5-1.5 4-2 .1-.1.3 0 .4-.1.3-.1.5-.1.8-.1 1.9-.5 3.9-.9 5.9-.9.5 0 .9.2 1.4.2 1.8.1 3.5.3 5.2.8.1 0 .1.1.1.1l-.1-.1h.2c.1 0 .1.1.1.1.3.1.4.1.7.1.1.1.3 0 .4.1 1.5.5 2.7 1.3 4.1 2 .5.3 1.2.5 1.7.9 1.4 1 2.6 2.2 3.7 3.5.4.4.8.6 1.1 1.1l.2.2.1.1 118.1 153.3c6.1-.9 12.5-1.4 19.2-1.4h100c30.5-.1 55.4 8.8 72.2 25.6z" clip-rule="evenodd" style="fill: #0b2739;"/></svg>
