<?xml version="1.0" encoding="utf-8"?>
<!-- Generator: Adobe Illustrator 25.0.0, SVG Export Plug-In . SVG Version: 6.00 Build 0)  -->
<svg version="1.1" id="Capa_1" xmlns="http://www.w3.org/2000/svg" xmlns:xlink="http://www.w3.org/1999/xlink" x="0px" y="0px"
	 viewBox="0 0 362.8 303.3" style="enable-background:new 0 0 362.8 303.3;" xml:space="preserve">
<style type="text/css">
	.st0{fill:#019DF4;}
</style>
<path class="st0" d="M71.2,51.6c-16.3,0.2-46.5,8.3-60.3,64.7c-6.7,26.3-7.8,53.8-3.1,80.6c3.8,22.5,10.1,44.6,18.8,65.7
	c1.9,4.4,4.4,8.6,7.3,12.4c6.7,8.5,17.9,8,22.6,5.6c5.1-2.5,11-8.6,8.9-22.5c-1.4-7.4-3.3-14.8-5.7-22c-5.1-16.8-12-37-12.6-51.4
	c-0.8-19.3,6.8-21.8,11.8-22.9c8.5-1.9,15.6,7.5,22.4,19.1c8.1,13.9,21.9,38.6,33.2,57.5c10.2,17,29,35.3,59.2,34
	c30.8-1.3,53.4-13,65.1-50c8.7-27.6,14.7-48.3,24.3-69.5c11-24.3,25.7-37.4,38.1-33.4c11.5,3.7,14.4,14.9,14.5,31.4
	c-0.2,14.2-1.1,28.4-2.9,42.6c-0.8,5.9-1.1,11.8-1,17.7c0.7,9.4,4.8,18.9,15.4,20.4c11.3,1.6,20.4-7.4,24-18.4
	c1.5-5.1,2.6-10.3,3.3-15.6c3.3-21,4.2-42.4,2.7-63.7c-1.8-28.3-7.3-54-16.9-76.3c-9.3-21.4-24.2-35.1-43.2-36.3
	c-21-1.3-45.1,12.6-57.8,39.7c-11.7,24.9-21,50.6-26.7,63.7c-5.7,13.1-14.2,21.4-27.2,22.8c-15.9,1.7-29.6-9.9-39.6-26.3
	c-8.7-14.3-26-41.6-35.3-50.8C101.9,62.1,92,51.3,71.2,51.6z"/>
</svg>
