<?xml version="1.0" encoding="utf-8"?>
<!-- Generator: Adobe Illustrator 25.2.1, SVG Export Plug-In . SVG Version: 6.00 Build 0)  -->
<svg version="1.1" id="Capa_1" xmlns="http://www.w3.org/2000/svg" xmlns:xlink="http://www.w3.org/1999/xlink" x="0px" y="0px"
	 viewBox="0 0 200 200" style="enable-background:new 0 0 200 200;" xml:space="preserve">
<style type="text/css">
	.st0{fill:#0B2739;}
</style>
<g id="Grupo_604" transform="translate(-116.9 0)">
	<path id="Trazado_434" class="st0" d="M275.2,8.5c-6.9-6.1-15.9-9.1-25.1-8.4h-66.5c-9.2-0.7-18.2,2.4-25.1,8.6
		c-6,6.8-9,15.8-8.3,24.8v133c-0.8,9.2,2.3,18.3,8.4,25.1c6.9,6,15.9,9,25,8.2h66.5c9.1,0.7,18.1-2.3,25-8.2
		c6.1-6.9,9.1-16,8.4-25.1v-133C284.3,24.4,281.3,15.4,275.2,8.5z M225.3,173.1c-2.2,2.1-5.2,3.2-8.3,3.1l0,0
		c-5.7,0.5-10.8-3.8-11.3-9.5c-0.1-0.6,0-1.2,0-1.8c-0.2-6.2,4.7-11.4,11-11.6c6.2-0.2,11.4,4.7,11.6,11c0,0.2,0,0.4,0,0.6
		C228.4,167.9,227.3,170.9,225.3,173.1L225.3,173.1z"/>
</g>
</svg>
