<?xml version="1.0" encoding="utf-8"?>
<!-- Generator: Adobe Illustrator 25.2.3, SVG Export Plug-In . SVG Version: 6.00 Build 0)  -->
<svg version="1.1" id="Capa_1" xmlns="http://www.w3.org/2000/svg" xmlns:xlink="http://www.w3.org/1999/xlink" x="0px" y="0px"
	 viewBox="0 0 41.1 24" style="enable-background:new 0 0 41.1 24;" xml:space="preserve">
<style type="text/css">
	.st0{fill:#0B2739;}
</style>
<g id="Grupo_611" transform="translate(-186.6 -680)">
	<g id="Grupo_908" transform="translate(993.8 680)">
		<path id="Trazado_1264" class="st0" d="M-782.1,22.5h-8c-1.9,0-2.6-0.7-2.6-2.6v-16c0-1.9,0.8-2.6,2.6-2.6h8
			c0.7-0.1,1.5,0.1,2,0.6c0.2,0.2,0.3,0.5,0.4,0.8h1.4c-0.1-0.6-0.4-1.2-0.9-1.7c-0.8-0.7-1.9-1.1-3-1h-8c-1.1-0.1-2.2,0.3-3,1
			c-0.7,0.8-1.1,1.9-1,3v16c-0.1,1.1,0.3,2.2,1,3c0.8,0.7,1.9,1.1,3,1h8c1.1,0.1,2.2-0.3,3-1c0.5-0.5,0.8-1.1,0.9-1.7h-1.4
			C-779.9,22.1-780.6,22.5-782.1,22.5z"/>
		<path id="Trazado_1265" class="st0" d="M-786.1,18.3c-0.7-0.1-1.3,0.4-1.4,1.1c0,0.1,0,0.2,0,0.2c0,0.4,0.1,0.7,0.4,1
			c0.3,0.3,0.6,0.4,1,0.4l0,0c0.4,0,0.7-0.1,1-0.4c0.2-0.3,0.4-0.6,0.4-1c0.1-0.7-0.4-1.3-1.1-1.4C-785.9,18.3-786,18.3-786.1,18.3z
			"/>
		<path id="Trazado_1266" class="st0" d="M-772.6,11.1h-2.5c0.7,0,1.2-0.5,1.2-1.2l0,0V3.8c0-0.7-0.5-1.2-1.2-1.2l0,0h-6.8
			c-0.7,0-1.2,0.5-1.2,1.2l0,0v6.1c0,0.7,0.5,1.2,1.2,1.2l0,0h0.2c-0.8,0-1.4,0.6-1.4,1.4l0,0v7.3c0,0.8,0.6,1.4,1.4,1.4l0,0h9.2
			c0.8,0,1.4-0.6,1.4-1.4l0,0v-7.3C-771.2,11.8-771.8,11.1-772.6,11.1L-772.6,11.1z M-781.7,4.2h1.8v1.7c0,0.3,0.2,0.5,0.5,0.5l0,0
			h1.8c0.3,0,0.5-0.2,0.5-0.5l0,0V4.2h1.8v5.6h-6.3L-781.7,4.2z M-772.7,19.6h-9v-6.9h2.8v2.5c0,0.3,0.2,0.5,0.5,0.5l0,0h2.4
			c0.3,0,0.5-0.2,0.5-0.5l0,0v-2.5h2.8V19.6L-772.7,19.6z"/>
	</g>
</g>
</svg>
