<?xml version="1.0" encoding="utf-8"?>
<!-- Generator: Adobe Illustrator 25.2.1, SVG Export Plug-In . SVG Version: 6.00 Build 0)  -->
<svg version="1.1" id="Capa_1" xmlns="http://www.w3.org/2000/svg" xmlns:xlink="http://www.w3.org/1999/xlink" x="0px" y="0px"
	 viewBox="0 0 200 224.9" style="enable-background:new 0 0 200 224.9;" xml:space="preserve">
<style type="text/css">
	.st0{fill:#0B2739;}
	.st1{fill-rule:evenodd;clip-rule:evenodd;fill:#0B2739;}
</style>
<path class="st0" d="M124.9,176c-5.8,0-9.5,3-9.5,9.5c0,3.1,0.9,5.4,2.4,7c1.7,1.7,4.1,2.5,7.1,2.5c3,0,5.4-0.8,7.1-2.5
	c1.5-1.6,2.4-3.9,2.4-7C134.4,179.1,130.7,176,124.9,176z"/>
<path class="st0" d="M124.9,198.3c-3.9,0-7.2-1.2-9.4-3.5c-2.2-2.3-3.3-5.4-3.3-9.3c0-8,4.7-12.7,12.7-12.7s12.7,4.8,12.7,12.7
	c0,3.9-1.1,7-3.3,9.3C132.2,197.1,128.8,198.3,124.9,198.3L124.9,198.3z M124.9,179.2c-4.4,0-6.3,2-6.3,6.3c0,2.2,0.5,3.8,1.5,4.8
	c1,1,2.6,1.6,4.8,1.6c2.2,0,3.8-0.5,4.8-1.6s1.5-2.6,1.5-4.8C131.2,181.2,129.3,179.2,124.9,179.2z"/>
<path class="st0" d="M190.7,9.3c-6.3-6.4-15.6-9.4-28.2-9.4H87.5C74.9-0.1,65.7,3,59.3,9.5c-5.8,5.9-8.9,14-9.3,24.9h12.8
	c0.8-15.4,8.2-21.7,24.7-21.7h74.9c9.1,0,15.4,1.9,19.2,5.7c3.8,3.8,5.6,10.1,5.6,19.2v149.9c0,18.1-6.7,24.8-24.8,24.8H87.5
	c-18.1,0-24.8-6.7-24.8-24.8V146H49.8v41.4c0,12.7,3.1,22,9.4,28.3c6.3,6.2,15.5,9.3,28.2,9.3h74.9c12.6,0,21.8-3,28.2-9.3
	c6.3-6.3,9.4-15.6,9.4-28.3V37.5C200,24.9,197,15.7,190.7,9.3z"/>
<path class="st1" d="M137,34.4h-1h-18.8H30.8H11.5c-5.8,0-11,5.8-11,12.2v21.9c0,6,4.1,11.1,9.2,12v53.2c0,6.6,5,12.2,11,12.2h106.6
	c5.9,0,11-5.6,11-12.2V80.7c5.4-0.8,9.7-5.9,9.7-12.1V46.6C148,40.2,142.8,34.4,137,34.4z M67,134.4H22.7c-0.4-0.1-1.4-1.2-1.4-2.7
	v0V83.1H67V134.4z M67,70.5H13.5c-0.4-0.2-1.3-1.2-1.3-2.7V47.4h0c0-1.3,1-2.6,1.3-2.7H67V70.5z M126.7,131.7c0,1.5-1,2.6-1.3,2.7h0
	H80.7V83.1h46V131.7z M136.3,67.8c0,1.5-1,2.6-1.3,2.7H80.7V44.7l54.1,0c0.4,0.2,1.5,1.4,1.5,2.7V67.8z"/>
</svg>
