<?xml version="1.0" encoding="UTF-8"?>
<svg xmlns="http://www.w3.org/2000/svg" viewBox="0 0 702.8 703"><g fill="#0B2739"><path d="M159.6 355.4c-2.6-1.8-3.8-3.8-3.8-6.9.1-4 3.4-7.2 7.4-7.1 1.9.1 3.8.7 5.4 1.8 11.5 7.6 27.5 15.3 46.1 15.3 27.8 0 44.8-14.3 44.8-35.4 0-17.3-9.7-29.6-41.5-33.6l-8.2-1c-33.9-4.3-49.7-20.6-49.7-45.9 0-30.1 21.4-48.7 54.3-48.7 18.4 0 33.9 4.8 44.6 11.5 3.3 2 4.8 4.6 4.8 7.1 0 3.8-3 6.9-6.8 6.9h-.1c-1.8-.1-3.5-.6-5.1-1.5-11.7-6.4-24-10.2-38-10.2-25.2 0-39.3 14-39.3 33.6 0 17.8 11 29.3 40.8 33.1l7.9 1C257.7 279.7 274 296 274 322c0 29.3-20.9 50.2-61.2 50.2-19-.2-37.5-6-53.2-16.8z" style="fill: #0B2739;"/><path d="M212.9 379.7c-20.6-.2-40.6-6.5-57.6-18.2-4.7-3.3-7-7.6-7-13 .1-8.2 6.7-14.7 14.9-14.6 3.4.1 6.7 1.1 9.5 3 14 9.3 28.1 14 42 14 23 0 37.3-10.7 37.3-27.9 0-11.3-4.2-22.3-35-26.2l-8.1-1c-46.5-6-56.3-32.3-56.3-53.3 0-34.1 24.3-56.2 61.8-56.2 18.2 0 35.4 4.5 48.6 12.6 7.3 4.5 8.4 10.4 8.4 13.5 0 8-6.4 14.4-14.4 14.4-3-.1-5.9-.9-8.4-2.3l-.2-.1c-11.6-6.3-22.6-9.3-34.4-9.3-19.9 0-31.8 9.8-31.8 26.1 0 6.9 0 21.3 34.2 25.7l7.9 1c47.3 6 57.3 32.7 57.3 54.1 0 17.1-6.3 31.5-18.1 41.8-12.1 10.4-29.5 15.9-50.6 15.9zm-49-30.5c3.8 2.7 7.9 5 12.1 7-4-2-7.9-4.3-11.7-6.9-.2-.2-.5-.3-.8-.4l.4.3zm68.3-64.8c14.7 3.7 24.7 10.1 30.1 19.3-6.7-12.2-20-17.1-30.1-19.3zM170 256.8c4.2 10.9 13.8 18.1 29.1 22-14.9-4.3-24.5-11.5-29.1-22z" style="fill: #0B2739;"/><path d="M214.9 403c-6.9 0-12.5-5.6-12.5-12.5V176c0-6.9 5.6-12.5 12.5-12.5s12.5 5.6 12.5 12.5v214.5c0 6.9-5.6 12.5-12.5 12.5z" style="fill: #0B2739;"/><path d="M214.9 459c-55.6 0-99-14.7-129-43.6-31.2-30.1-47-74.6-47-132.4s15.8-102.3 47-132.4c30-28.9 73.4-43.6 129-43.6s99 14.7 129 43.6c31.2 30.1 47 74.6 47 132.4s-15.8 102.3-47 132.4c-30 28.9-73.4 43.6-129 43.6zm0-312c-44.9 0-78.9 10.9-101.2 32.4-23.1 22.2-34.8 57.1-34.8 103.6s11.7 81.4 34.8 103.6C136 408.1 170.1 419 214.9 419s78.9-10.9 101.2-32.4c23.1-22.2 34.8-57.1 34.8-103.6s-11.7-81.4-34.8-103.6c-22.3-21.5-56.3-32.4-101.2-32.4z" style="fill: #0B2739;"/><path d="M546.3 703h-234c-39.5 0-68.3-9.5-88-29-19.9-19.7-29.5-48.7-29.5-88.5v-135c0-11 9-20 20-20s20 9 20 20v135c0 56.5 21 77.5 77.5 77.5h234c56.5 0 77.5-21 77.5-77.5v-468c0-28.3-5.8-47.9-17.6-59.8S574.7 40 546.3 40h-234c-55 0-77.5 22.5-77.5 77.5 0 11-9 20-20 20s-20-9-20-20c0-38.8 9.6-67.3 29.4-87.4C244.3 9.9 273.1 0 312.3 0h234c39.6 0 68.4 9.6 88.2 29.5s29.3 48.6 29.3 88v468c0 39.8-9.7 68.8-29.5 88.5-19.7 19.5-48.5 29-88 29z" style="fill: #0B2739;"/><path d="M429.3 550c-18 0-29.7 9.5-29.7 29.8 0 9.8 2.7 17 7.5 21.9 5.2 5.3 12.8 7.9 22.2 7.9s17-2.6 22.2-7.9c4.8-4.9 7.5-12.2 7.5-21.9 0-20.3-11.7-29.8-29.7-29.8z" style="fill: #0B2739;"/><path d="M429.3 619.7c-12.2 0-22.4-3.8-29.3-10.9s-10.3-16.8-10.3-28.9c0-24.9 14.8-39.8 39.7-39.8s39.7 14.9 39.7 39.8c0 12.2-3.5 21.9-10.3 28.9s-17.2 10.9-29.5 10.9zm0-59.6c-13.6 0-19.7 6.1-19.7 19.8 0 6.8 1.6 11.8 4.6 14.9s8.2 4.9 15 4.9 11.9-1.6 15-4.9 4.6-8.2 4.6-14.9c.2-13.7-5.9-19.9-19.5-19.8z" style="fill: #0B2739;"/></g></svg>
